<svg width="32" height="32" viewBox="0 0 32 32" fill="none" xmlns="http://www.w3.org/2000/svg">
<path d="M10.9297 19.3469C10.9297 21.2665 12.4029 22.8141 14.2332 22.8141H17.9683C19.5606 22.8141 20.8552 21.46 20.8552 19.7933C20.8552 17.9778 20.0665 17.338 18.8909 16.9213L12.894 14.838C11.7184 14.4213 10.9297 13.7815 10.9297 11.966C10.9297 10.2994 12.2243 8.9452 13.8166 8.9452H17.5516C19.382 8.9452 20.8552 10.4928 20.8552 12.4124M15.882 6.95117V24.8081" stroke="#5E44FF" stroke-width="2" stroke-linecap="round" stroke-linejoin="round"/>
<path d="M20.345 30.7616H11.4166C3.97616 30.7616 1 27.7854 1 20.345V11.4166C1 3.97616 3.97616 1 11.4166 1H20.345C27.7854 1 30.7616 3.97616 30.7616 11.4166V20.345C30.7616 27.7854 27.7854 30.7616 20.345 30.7616Z" stroke="#5E44FF" stroke-width="2" stroke-linecap="round" stroke-linejoin="round"/>
</svg>
