<svg width="34" height="34" viewBox="0 0 34 34" fill="none" xmlns="http://www.w3.org/2000/svg">
<path d="M16.7355 7.26953C21.7566 7.26953 25.8311 11.3441 25.8311 16.3651C25.8311 21.3862 21.7566 25.4607 16.7355 25.4607C11.7144 25.4607 7.63989 21.3862 7.63989 16.3651C7.63989 11.3441 11.7144 7.26953 16.7355 7.26953Z" fill="#FFD248"/>
<path d="M32.7438 13.4565V20.0053H29.7821C29.4552 21.3008 28.9457 22.523 28.2763 23.6364L30.3719 25.732L25.7438 30.3672L23.6411 28.2716C22.5276 28.941 21.3054 29.4505 20.01 29.7773V32.7392H13.4612V29.7774C12.1665 29.4506 10.9435 28.9411 9.8301 28.2717L7.73455 30.3673L3.09935 25.7321L5.19564 23.6365C4.52613 22.523 4.0159 21.3008 3.68904 20.0053H0.727295V13.4565H3.68904C4.0159 12.1618 4.52613 10.9388 5.19549 9.82539L3.09921 7.72278L7.7344 3.09464L9.82995 5.19092C10.9435 4.52149 12.1664 4.01126 13.4611 3.6844V0.722656H20.01V3.6844C21.3054 4.01126 22.5276 4.52149 23.6411 5.19085L25.7366 3.09457L30.3718 7.7227L28.2763 9.82531C28.9456 10.9388 29.4551 12.1617 29.782 13.4564H32.7438V13.4565ZM25.8312 16.3671C25.8312 11.346 21.7566 7.27149 16.7356 7.27149C11.7145 7.27149 7.63995 11.346 7.63995 16.3671C7.63995 21.3882 11.7145 25.4627 16.7356 25.4627C21.7566 25.4627 25.8312 21.3882 25.8312 16.3671Z" fill="#AFB6BB"/>
<path d="M16.7354 9.82031C20.3509 9.82031 23.2842 12.7543 23.2842 16.3691C23.2842 19.9847 20.3508 22.918 16.7354 22.918C13.1205 22.918 10.1865 19.9846 10.1865 16.3691C10.1865 12.7543 13.1205 9.82031 16.7354 9.82031Z" fill="#FDC447"/>
<path d="M32.7442 12.7338H30.3376C30.0511 11.7621 29.6648 10.8297 29.1842 9.95051L30.8876 8.24134C31.1711 7.9569 31.1706 7.49659 30.8863 7.21281L26.2511 2.58468C25.9668 2.30082 25.5064 2.30097 25.2223 2.58519L23.5203 4.28767C22.6404 3.80676 21.7084 3.42031 20.7379 3.13405V0.727648C20.7379 0.325768 20.4121 0 20.0102 0H13.4614C13.0595 0 12.7338 0.325768 12.7338 0.727648V3.1342C11.763 3.42053 10.831 3.80698 9.95139 4.28781L8.24935 2.58526C7.96535 2.30119 7.50482 2.30097 7.2206 2.58475L2.58548 7.21281C2.30126 7.49652 2.30075 7.95705 2.58424 8.24149L4.28818 9.95059C3.8072 10.8305 3.4206 11.7627 3.1342 12.7338H0.727648C0.325768 12.7338 0 13.0596 0 13.4615V20.0103C0 20.4121 0.325768 20.738 0.727648 20.738H3.13413C3.42038 21.7084 3.80676 22.6406 4.28774 23.5204L2.58526 25.2224C2.44875 25.3588 2.37199 25.5439 2.37199 25.7369C2.37199 25.9299 2.44868 26.115 2.58512 26.2515L7.22031 30.8867C7.50453 31.1708 7.96513 31.1708 8.24942 30.8867L9.95146 29.1846C10.8304 29.6649 11.7625 30.0511 12.7339 30.3375V32.7442C12.7339 33.146 13.0597 33.4718 13.4616 33.4718H20.0104C20.4122 33.4718 20.738 33.146 20.738 32.7442V30.3377C21.7096 30.0513 22.6419 29.665 23.5214 29.1842L25.2305 30.8876C25.5149 31.171 25.9754 31.1705 26.2591 30.8863L30.8871 26.2511C31.1709 25.9668 31.1708 25.5065 30.8868 25.2224L29.1847 23.5204C29.6651 22.6412 30.0514 21.7091 30.3377 20.7379H32.7442C33.146 20.7379 33.4718 20.4121 33.4718 20.0102V13.4614C33.4718 13.0596 33.146 12.7338 32.7442 12.7338ZM32.0165 19.2827H29.7824C29.4492 19.2827 29.1585 19.5091 29.0769 19.8323C28.7694 21.051 28.2903 22.2065 27.6531 23.2665C27.4809 23.5529 27.5259 23.9198 27.7622 24.156L29.3436 25.7374L25.7429 29.3436L24.1552 27.7613C23.9188 27.5258 23.5526 27.4812 23.2666 27.6531C22.2066 28.2904 21.0511 28.7695 19.8324 29.0769C19.5093 29.1585 19.2827 29.4492 19.2827 29.7824V32.0165H14.1892V29.7824C14.1892 29.4492 13.9628 29.1585 13.6397 29.077C12.4204 28.7692 11.2649 28.2901 10.2053 27.6531C9.91894 27.481 9.55213 27.5259 9.31586 27.7622L7.73483 29.3432L4.12875 25.7371L5.71029 24.1562C5.94656 23.9199 5.9916 23.5531 5.81944 23.2666C5.18136 22.2052 4.70213 21.0497 4.39492 19.8324C4.31335 19.5093 4.02266 19.2827 3.68939 19.2827H1.4553V14.1892H3.68939C4.02266 14.1892 4.31328 13.9628 4.39485 13.6397C4.70243 12.4218 5.18165 11.2663 5.81944 10.2053C5.99138 9.9193 5.9467 9.553 5.71116 9.31666L4.12824 7.72901L7.73432 4.12846L9.31571 5.71044C9.55213 5.94685 9.91893 5.99167 10.2053 5.81958C11.2662 5.1818 12.4217 4.7025 13.6396 4.39499C13.9628 4.31343 14.1891 4.0228 14.1891 3.68954V1.4553H19.2827V3.68939C19.2827 4.02266 19.5091 4.31335 19.8323 4.39492C21.0496 4.70213 22.2051 5.18144 23.2665 5.81944C23.5528 5.99145 23.9198 5.94649 24.1561 5.71029L25.7375 4.12831L29.3436 7.72893L27.7613 9.31666C27.5258 9.55293 27.4811 9.91923 27.6531 10.2052C28.2901 11.2649 28.7692 12.4202 29.077 13.6395C29.1585 13.9627 29.4492 14.1891 29.7824 14.1891H32.0165V19.2827Z" fill="#231F20"/>
<path d="M16.7358 6.54688C11.3193 6.54688 6.9126 10.9536 6.9126 16.3701C6.9126 21.7867 11.3193 26.1934 16.7358 26.1934C22.1524 26.1934 26.5591 21.7867 26.5591 16.3701C26.5591 10.9535 22.1525 6.54688 16.7358 6.54688ZM16.7358 24.7381C12.1218 24.7381 8.36789 20.9842 8.36789 16.3701C8.36789 11.756 12.1218 8.00217 16.7358 8.00217C21.3499 8.00217 25.1038 11.756 25.1038 16.3701C25.1038 20.9842 21.3499 24.7381 16.7358 24.7381Z" fill="#231F20"/>
<path d="M17.8277 12.736H17.4639V11.6445H16.0086V12.736H15.6447C14.8423 12.736 14.1895 13.3888 14.1895 14.1913V15.6466C14.1895 16.449 14.8423 17.1019 15.6447 17.1019H16.7362H17.8277V18.5572H15.6447V17.8295H14.1895V18.5572C14.1895 19.3596 14.8423 20.0125 15.6447 20.0125H16.0086V21.104H17.4639V20.0125H17.8277C18.6301 20.0125 19.283 19.3596 19.283 18.5572V17.1019C19.283 16.2994 18.6301 15.6466 17.8277 15.6466H16.7362H15.6447V14.1913H17.8277V14.9189H19.283V14.1913C19.283 13.3888 18.6301 12.736 17.8277 12.736Z" fill="#231F20"/>
<path d="M22.9211 15.6445H21.4658V17.0998H22.9211V15.6445Z" fill="#231F20"/>
<path d="M12.0061 15.6445H10.5508V17.0998H12.0061V15.6445Z" fill="#231F20"/>
</svg>
