<svg width="13" height="13" viewBox="0 0 13 13" fill="none" xmlns="http://www.w3.org/2000/svg">
<path d="M12.0714 5.10714H7.89286V0.928571C7.89286 0.415826 7.47703 0 6.96429 0H6.03571C5.52297 0 5.10714 0.415826 5.10714 0.928571V5.10714H0.928571C0.415826 5.10714 0 5.52297 0 6.03571V6.96429C0 7.47703 0.415826 7.89286 0.928571 7.89286H5.10714V12.0714C5.10714 12.5842 5.52297 13 6.03571 13H6.96429C7.47703 13 7.89286 12.5842 7.89286 12.0714V7.89286H12.0714C12.5842 7.89286 13 7.47703 13 6.96429V6.03571C13 5.52297 12.5842 5.10714 12.0714 5.10714Z" fill="black"/>
</svg>
