<svg width="28" height="38" viewBox="0 0 28 38" fill="none" xmlns="http://www.w3.org/2000/svg">
<path d="M26.2941 9.93671C22.6697 -2.50495 4.94152 -2.50495 1.31709 9.93671C0.851964 11.5335 0.602539 13.2222 0.602539 14.9692C0.602539 23.2418 6.19521 30.2072 13.8056 32.2934C21.416 30.2072 27.0087 23.2418 27.0087 14.9692C27.0087 13.2222 26.7593 11.5336 26.2941 9.93671Z" fill="#FC583D"/>
<path d="M13.6364 24.7481C19.4939 24.7481 24.2424 19.8866 24.2424 13.8897C24.2424 7.89274 19.4939 3.03125 13.6364 3.03125C7.77895 3.03125 3.03052 7.89274 3.03052 13.8897C3.03052 19.8866 7.77895 24.7481 13.6364 24.7481Z" fill="white"/>
<path d="M5.85346 20.8161C5.54698 21.1226 5.54698 21.6196 5.85346 21.926C7.99977 24.0723 10.8533 25.2543 13.8886 25.2543C20.1545 25.2543 25.2521 20.1566 25.2521 13.8909C25.2521 7.62495 20.1544 2.52734 13.8886 2.52734C7.62276 2.52734 2.52515 7.62505 2.52515 13.8909C2.52515 15.4246 2.82564 16.9129 3.41845 18.3142C3.58737 18.7132 4.04757 18.9 4.44711 18.7313C4.84628 18.5624 5.03298 18.1019 4.86424 17.7028C4.35376 16.496 4.09491 15.2134 4.09491 13.8908C4.09491 8.4904 8.48849 4.09682 13.8888 4.09682C19.2892 4.09682 23.6827 8.4904 23.6827 13.8908C23.6827 19.2911 19.2892 23.6846 13.8888 23.6846C11.2728 23.6846 8.81331 22.666 6.96341 20.8161C6.65673 20.5097 6.15985 20.5097 5.85346 20.8161Z" fill="black"/>
<path d="M22.6649 29.3531C22.3889 29.167 22.0144 29.2397 21.8283 29.5156C21.6422 29.7915 21.715 30.1661 21.9908 30.3522C22.6208 30.7772 23.3717 31.4593 23.3717 32.2957C23.3717 33.2243 22.4172 34.177 20.7532 34.9096C18.9074 35.7221 16.4401 36.1697 13.8058 36.1697C10.782 36.1697 7.88551 35.5491 6.05793 34.5096C5.76843 34.3451 5.40069 34.4463 5.23608 34.7355C5.07162 35.0249 5.17272 35.3928 5.462 35.5574C7.49295 36.7125 10.5341 37.375 13.8057 37.375C16.6036 37.375 19.2433 36.8912 21.2387 36.0128C23.3914 35.0652 24.5767 33.7451 24.5767 32.2958C24.5769 31.2146 23.9156 30.1971 22.6649 29.3531Z" fill="black"/>
<path d="M7.11104 29.5736C9.04665 31.0908 11.2747 32.2252 13.6464 32.8755C13.6986 32.8898 13.7522 32.897 13.8058 32.897C13.8594 32.897 13.9129 32.8898 13.9651 32.8755C17.8126 31.8208 21.2832 29.493 23.7378 26.3208C26.272 23.0459 27.6115 19.1209 27.6115 14.97C27.6115 13.2012 27.363 11.4513 26.873 9.76902C26.5167 8.54642 26.0164 7.39981 25.3858 6.36109C25.2131 6.07648 24.8425 5.98597 24.558 6.15868C24.2734 6.33146 24.1829 6.70205 24.3556 6.98651C24.9314 7.93516 25.3891 8.98468 25.7158 10.106C26.1741 11.6789 26.4064 13.3154 26.4064 14.97C26.4064 18.8514 25.1541 22.5214 22.7847 25.5831C20.5229 28.5061 17.3394 30.6624 13.8059 31.6685C10.2723 30.6624 7.08892 28.5061 4.82695 25.5831C2.45767 22.5213 1.2053 18.8514 1.2053 14.97C1.2053 13.3154 1.43757 11.6789 1.89583 10.106C3.1312 5.86516 6.23554 2.78557 10.4128 1.65692C14.7039 0.497463 19.2942 1.60487 22.3924 4.54672C22.6338 4.77586 23.0152 4.766 23.2444 4.52468C23.4736 4.28328 23.4636 3.90188 23.2223 3.67268C19.8213 0.443301 14.7927 -0.774915 10.0984 0.493376C5.50588 1.73429 2.09438 5.11514 0.738565 9.76894C0.248403 11.4513 0 13.2012 0 14.9699C0 19.1208 1.33953 23.0459 3.87371 26.3207C4.54001 27.1817 5.28149 27.9799 6.08473 28.7079C4.10904 29.6423 3.03463 30.8954 3.03463 32.2942C3.03463 32.6227 3.09689 32.9503 3.21967 33.2679C3.31208 33.507 3.54019 33.6533 3.78188 33.6533C3.85414 33.6533 3.92765 33.6403 3.99904 33.6126C4.30942 33.4925 4.46387 33.1437 4.3438 32.8332C4.27474 32.6548 4.23985 32.4734 4.23985 32.2942C4.23985 31.3172 5.3066 30.3128 7.11104 29.5736Z" fill="black"/>
<path d="M18.1814 19.7055H9.09065C8.53511 19.7055 8.08057 19.251 8.08057 18.6955C8.08057 16.7258 9.6462 15.1602 11.6159 15.1602H15.6562C17.6259 15.1602 19.1915 16.7258 19.1915 18.6955C19.1915 19.251 18.737 19.7055 18.1814 19.7055Z" fill="#6C3DB7" stroke="black" stroke-width="2" stroke-miterlimit="10" stroke-linecap="round" stroke-linejoin="round"/>
<path d="M13.636 13.1347C15.3095 13.1347 16.6662 11.778 16.6662 10.1045C16.6662 8.43091 15.3095 7.07422 13.636 7.07422C11.9624 7.07422 10.6057 8.43091 10.6057 10.1045C10.6057 11.778 11.9624 13.1347 13.636 13.1347Z" fill="#6EBAFF" stroke="black" stroke-width="2" stroke-miterlimit="10" stroke-linecap="round" stroke-linejoin="round"/>
</svg>
