<svg width="30" height="32" viewBox="0 0 30 32" fill="none" xmlns="http://www.w3.org/2000/svg">
<path d="M1 30.7616C1 25.0027 6.72911 20.345 13.7826 20.345M28.6634 30.7616L27.1753 29.2735M13.7826 15.8808C15.7559 15.8808 17.6484 15.0969 19.0438 13.7016C20.4391 12.3062 21.223 10.4137 21.223 8.4404C21.223 6.46708 20.4391 4.57459 19.0438 3.17924C17.6484 1.7839 15.7559 1 13.7826 1C11.8093 1 9.9168 1.7839 8.52145 3.17924C7.12611 4.57459 6.34221 6.46708 6.34221 8.4404C6.34221 10.4137 7.12611 12.3062 8.52145 13.7016C9.9168 15.0969 11.8093 15.8808 13.7826 15.8808V15.8808ZM23.0087 29.8688C24.2716 29.8688 25.4828 29.3671 26.3759 28.474C27.2689 27.581 27.7706 26.3698 27.7706 25.1069C27.7706 23.844 27.2689 22.6328 26.3759 21.7398C25.4828 20.8467 24.2716 20.345 23.0087 20.345C21.7458 20.345 20.5346 20.8467 19.6416 21.7398C18.7485 22.6328 18.2469 23.844 18.2469 25.1069C18.2469 26.3698 18.7485 27.581 19.6416 28.474C20.5346 29.3671 21.7458 29.8688 23.0087 29.8688Z" stroke="#5E44FF" stroke-width="2" stroke-linecap="round" stroke-linejoin="round"/>
</svg>
