<svg width="28" height="32" viewBox="0 0 28 32" fill="none" xmlns="http://www.w3.org/2000/svg">
<path d="M27.4762 22.0365C26.3011 20.7738 24.1022 18.8742 24.1022 12.6517C24.1022 7.92559 20.7885 4.14223 16.3202 3.21403V1.94642C16.3202 0.871632 15.4492 0 14.375 0C13.3008 0 12.4298 0.871632 12.4298 1.94642V3.21403C7.96154 4.14223 4.64775 7.92559 4.64775 12.6517C4.64775 18.8742 2.4489 20.7738 1.27375 22.0365C0.908797 22.4289 0.747001 22.8978 0.750042 23.3571C0.756733 24.3546 1.53956 25.3035 2.70255 25.3035H26.0475C27.2104 25.3035 27.9939 24.3546 28 23.3571C28.003 22.8978 27.8412 22.4283 27.4762 22.0365ZM4.8576 22.3839C6.14832 20.6826 7.55948 17.8627 7.56617 12.687C7.56617 12.6749 7.56252 12.6639 7.56252 12.6517C7.56252 8.88907 10.6123 5.83927 14.375 5.83927C18.1377 5.83927 21.1875 8.88907 21.1875 12.6517C21.1875 12.6639 21.1838 12.6749 21.1838 12.687C21.1905 17.8633 22.6017 20.6832 23.8924 22.3839H4.8576ZM14.375 31.1428C16.5234 31.1428 18.266 29.4001 18.266 27.2499H10.484C10.484 29.4001 12.2266 31.1428 14.375 31.1428Z" fill="#C5C5C5"/>
</svg>
