<svg width="17" height="19" viewBox="0 0 9 9" fill="none" xmlns="http://www.w3.org/2000/svg">
<path d="M1.45487 8.09655C1.45487 8.31869 1.54311 8.53173 1.70019 8.6888C1.85726 8.84588 2.0703 8.93412 2.29244 8.93412H7.31788C7.54002 8.93412 7.75306 8.84588 7.91014 8.6888C8.06721 8.53173 8.15546 8.31869 8.15546 8.09655V2.23353H1.45487V8.09655ZM6.20112 3.62949C6.20112 3.55544 6.23053 3.48443 6.28289 3.43207C6.33525 3.37971 6.40626 3.3503 6.48031 3.3503C6.55436 3.3503 6.62537 3.37971 6.67773 3.43207C6.73009 3.48443 6.7595 3.55544 6.7595 3.62949V7.53817C6.7595 7.61221 6.73009 7.68323 6.67773 7.73559C6.62537 7.78794 6.55436 7.81736 6.48031 7.81736C6.40626 7.81736 6.33525 7.78794 6.28289 7.73559C6.23053 7.68323 6.20112 7.61221 6.20112 7.53817V3.62949ZM4.52597 3.62949C4.52597 3.55544 4.55539 3.48443 4.60774 3.43207C4.6601 3.37971 4.73112 3.3503 4.80516 3.3503C4.87921 3.3503 4.95022 3.37971 5.00258 3.43207C5.05494 3.48443 5.08435 3.55544 5.08435 3.62949V7.53817C5.08435 7.61221 5.05494 7.68323 5.00258 7.73559C4.95022 7.78794 4.87921 7.81736 4.80516 7.81736C4.73112 7.81736 4.6601 7.78794 4.60774 7.73559C4.55539 7.68323 4.52597 7.61221 4.52597 7.53817V3.62949ZM2.85082 3.62949C2.85082 3.55544 2.88024 3.48443 2.9326 3.43207C2.98495 3.37971 3.05597 3.3503 3.13001 3.3503C3.20406 3.3503 3.27507 3.37971 3.32743 3.43207C3.37979 3.48443 3.40921 3.55544 3.40921 3.62949V7.53817C3.40921 7.61221 3.37979 7.68323 3.32743 7.73559C3.27507 7.78794 3.20406 7.81736 3.13001 7.81736C3.05597 7.81736 2.98495 7.78794 2.9326 7.73559C2.88024 7.68323 2.85082 7.61221 2.85082 7.53817V3.62949ZM8.43465 0.558386H6.34071L6.17669 0.232081C6.14194 0.16232 6.08842 0.103639 6.02214 0.0626394C5.95586 0.0216394 5.87946 -5.28363e-05 5.80153 3.05936e-06H3.80705C3.72929 -0.000295859 3.65302 0.0213155 3.58698 0.0623611C3.52094 0.103407 3.46779 0.162226 3.43363 0.232081L3.26961 0.558386H1.17568C1.10163 0.558386 1.03062 0.5878 0.978258 0.640159C0.925899 0.692517 0.896484 0.763531 0.896484 0.837577V1.39596C0.896484 1.47001 0.925899 1.54102 0.978258 1.59338C1.03062 1.64574 1.10163 1.67515 1.17568 1.67515H8.43465C8.50869 1.67515 8.57971 1.64574 8.63207 1.59338C8.68442 1.54102 8.71384 1.47001 8.71384 1.39596V0.837577C8.71384 0.763531 8.68442 0.692517 8.63207 0.640159C8.57971 0.5878 8.50869 0.558386 8.43465 0.558386V0.558386Z" fill="#002315"/>
</svg>
