<svg width="20" height="18" viewBox="0 0 24 26" stroke="black" fill="black" fill-opacity="5.5" stroke-opacity="0.8" xmlns="http://www.w3.org/2000/svg">
    <path d="M17.4613 15.314L18.8502 13.9251C19.0673 13.7081 19.4449 13.86 19.4449 14.1725V20.4834C19.4449 21.6336 18.5117 22.5668 17.3615 22.5668H2.08338C0.93318 22.5668 0 21.6336 0 20.4834V5.20529C0 4.05509 0.93318 3.12191 2.08338 3.12191H13.9543C14.2625 3.12191 14.4187 3.49519 14.2017 3.71654L12.8128 5.10546C12.7477 5.17057 12.6609 5.20529 12.5654 5.20529H2.08338V20.4834H17.3615V15.5571C17.3615 15.4659 17.3962 15.3791 17.4613 15.314ZM24.2583 6.55515L12.8605 17.953L8.93682 18.387C7.79965 18.5129 6.83174 17.5536 6.95762 16.4078L7.39165 12.4841L18.7895 1.08628C19.7834 0.092334 21.3893 0.092334 22.379 1.08628L24.254 2.96132C25.2479 3.95527 25.2479 5.56554 24.2583 6.55515ZM19.97 7.89632L17.4483 5.37457L9.38388 13.4433L9.06704 16.2776L11.9013 15.9607L19.97 7.89632ZM22.7826 4.43705L20.9076 2.56201C20.7296 2.38405 20.4388 2.38405 20.2652 2.56201L18.924 3.90318L21.4458 6.42494L22.787 5.08376C22.9606 4.90147 22.9606 4.615 22.7826 4.43705Z" fill="black"/>
</svg>