<svg width="37" height="32" viewBox="0 0 37 32" fill="none" xmlns="http://www.w3.org/2000/svg">
<path d="M5.05816 18.3236H4.19155C3.12864 18.3236 2.26685 17.4619 2.26685 16.3989V14.5653C2.26685 13.5024 3.12849 12.6406 4.19155 12.6406H5.05816C6.00703 12.6406 6.77611 13.4099 6.77611 14.3586V16.6055C6.77619 17.5544 6.00703 18.3236 5.05816 18.3236Z" fill="#FFBAA8"/>
<path d="M8.25064 24.8741H0.79248V21.3269C0.79248 19.6686 2.13685 18.3242 3.79514 18.3242H5.2479C6.90619 18.3242 8.25056 19.6686 8.25056 21.3269V24.8741H8.25064Z" fill="#0BBBDA"/>
<path d="M32.4835 18.3236H31.6168C30.5539 18.3236 29.6921 17.4619 29.6921 16.3989V14.5653C29.6921 13.5024 30.5538 12.6406 31.6168 12.6406H32.4835C33.4323 12.6406 34.2014 13.4099 34.2014 14.3586V16.6055C34.2016 17.5544 33.4323 18.3236 32.4835 18.3236Z" fill="#FFBAA8"/>
<path d="M35.6759 24.8702H28.2178V21.323C28.2178 19.6647 29.5621 18.3203 31.2204 18.3203H32.6732C34.3315 18.3203 35.6759 19.6647 35.6759 21.323V24.8702H35.6759Z" fill="#0BBBDA"/>
<path d="M11.4202 27.7402V23.5011C11.4202 21.0615 13.6461 19.7969 16.0986 19.7969H20.3702C22.8227 19.7969 25.0486 21.0615 25.0486 23.5011V27.7402H11.4202Z" fill="#0BBBDA"/>
<path d="M18.4917 19.7936H17.9766C16.3465 19.7936 15.342 18.4722 15.342 16.842V15.4554C15.342 13.8253 16.3465 12.5039 17.9766 12.5039H18.4917C20.1218 12.5039 21.1262 13.8253 21.1262 15.4554V16.842C21.1262 18.4721 20.1218 19.7936 18.4917 19.7936Z" fill="#FFBAA8"/>
<circle cx="18" cy="18" r="11" fill="white"/>
<path d="M20.7645 19.7891L18.2343 23.764L15.7041 19.7891H20.7645Z" fill="#ECF0F1"/>
<path d="M28.5168 24.6859C29.7803 22.7555 30.5157 20.4483 30.5157 17.9689C30.5157 11.1861 25.0172 5.6875 18.2343 5.6875C11.4515 5.6875 5.95288 11.1862 5.95288 17.969C5.95288 24.7519 11.4515 30.2504 18.2343 30.2504C20.6384 30.2504 22.8807 29.559 24.7745 28.3652L28.5168 24.6859ZM18.2343 26.6848C13.4284 26.6848 9.51848 22.7749 9.51848 17.969C9.51848 13.1631 13.4284 9.25317 18.2343 9.25317C23.0402 9.25317 26.9501 13.1631 26.9501 17.969C26.9501 22.7749 23.0403 26.6848 18.2343 26.6848Z" fill="#ECF0F1"/>
<path d="M30.6119 25.6639H35.6759C36.1134 25.6639 36.4682 25.309 36.4682 24.8715V21.3242C36.4682 19.9139 35.6942 18.6816 34.5493 18.0274C34.8293 17.6225 34.9938 17.132 34.9938 16.6035V14.3567C34.9938 12.9725 33.8677 11.8464 32.4835 11.8464H31.6169C31.0282 11.8464 30.4834 12.0354 30.0379 12.3547C27.933 7.94938 23.4333 4.89844 18.234 4.89844C13.0642 4.89844 8.5859 7.91488 6.46598 12.2801C6.06408 12.0067 5.57955 11.8464 5.05797 11.8464H4.19142C2.69325 11.8464 1.47437 13.0653 1.47437 14.5634V16.3969C1.47437 16.9902 1.66605 17.5394 1.99 17.9867C0.805837 18.6297 0 19.8846 0 21.3242V24.8715C0 25.309 0.354752 25.6639 0.792355 25.6639H7.66935C10.0491 28.9237 13.8981 31.0461 18.2342 31.0461C20.4927 31.0461 22.6977 30.4667 24.6503 29.365C27.4097 27.8081 28.2498 27.5761 30.6119 25.6639ZM34.8835 24.0792H29.7941C30.6095 22.539 31.1056 20.8549 31.2567 19.114H32.6731C33.8919 19.114 34.8834 20.1056 34.8834 21.3243L34.8835 24.0792ZM31.6169 13.4311H32.4835C32.9938 13.4311 33.4091 13.8463 33.4091 14.3567V16.6035C33.4091 17.1139 32.9939 17.5292 32.4835 17.5292H31.6169C31.506 17.5292 31.3991 17.5125 31.2978 17.4826C31.2522 16.2516 31.0358 15.0639 30.6714 13.9419C30.8741 13.6345 31.222 13.4311 31.6169 13.4311ZM3.05908 14.5634C3.05908 13.939 3.56703 13.4311 4.19142 13.4311H5.05804C5.3792 13.4311 5.66248 13.5956 5.82855 13.8446C5.44089 15.0069 5.2126 16.2413 5.16899 17.5219C5.13253 17.5263 5.0957 17.5292 5.05804 17.5292H4.19142C3.56703 17.5292 3.05908 17.0212 3.05908 16.3969V14.5634ZM1.58471 24.0792V21.3242C1.58471 20.1054 2.57628 19.1139 3.79502 19.1139H5.21071C5.36549 20.8943 5.87842 22.5735 6.67725 24.0791L1.58471 24.0792ZM24.3517 27.6982C22.5219 28.8517 20.4065 29.4613 18.2341 29.4613C11.899 29.4613 6.74504 24.3073 6.74504 17.9722C6.74504 11.6371 11.899 6.48315 18.2341 6.48315C24.5692 6.48315 29.7232 11.6371 29.7232 17.9722C29.7232 20.2141 29.0767 22.3867 27.8536 24.2552C26.7611 25.9245 25.9063 26.717 24.3517 27.6982Z" fill="#231F20"/>
<path d="M18.2338 8.46484C12.991 8.46484 8.72559 12.7302 8.72559 17.973C8.72559 23.2158 12.991 27.4812 18.2338 27.4812C23.4766 27.4812 27.742 23.2158 27.742 17.973C27.742 12.7302 23.4766 8.46484 18.2338 8.46484ZM18.2338 10.0496C22.6029 10.0496 26.1572 13.6039 26.1572 17.973C26.1572 19.2333 25.861 20.4255 25.3353 21.4844C24.6164 20.1737 23.1738 19.2821 21.3086 19.0587C21.6966 18.4506 21.9182 17.6931 21.9182 16.8439V15.4573C21.9182 13.2879 20.477 11.7134 18.4913 11.7134H17.9763C15.9905 11.7134 14.5493 13.2879 14.5493 15.4573V16.8439C14.5493 17.6931 14.771 18.4506 15.159 19.0587C13.2938 19.2821 11.851 20.1738 11.1323 21.4844C10.6065 20.4254 10.3103 19.2333 10.3103 17.973C10.3103 13.604 13.8647 10.0496 18.2338 10.0496ZM16.134 16.844V15.4574C16.134 14.3827 16.7037 13.2982 17.9763 13.2982H18.4913C19.7639 13.2982 20.3335 14.3827 20.3335 15.4574V16.844C20.3335 17.9186 19.7639 19.0032 18.4913 19.0032H17.9763C16.7037 19.0032 16.134 17.9186 16.134 16.844ZM19.3204 20.5878L18.2338 22.2948L17.1472 20.5878H19.3204ZM18.2338 25.8966C15.8383 25.8966 13.6878 24.828 12.2336 23.1425C12.4194 21.6401 13.7793 20.8425 15.3021 20.6404L17.5653 24.196C17.7108 24.4245 17.9629 24.5629 18.2338 24.5629C18.5047 24.5629 18.7568 24.4245 18.9022 24.196L21.1654 20.6404C22.6883 20.8425 24.0482 21.6401 24.234 23.1425C22.7797 24.8279 20.6293 25.8966 18.2338 25.8966Z" fill="#231F20"/>
<path d="M18.234 3.09018C18.6715 3.09018 19.0264 2.73536 19.0264 2.29783V0.792355C19.0264 0.354827 18.6715 0 18.234 0C17.7964 0 17.4417 0.354827 17.4417 0.792355V2.29783C17.4417 2.73536 17.7964 3.09018 18.234 3.09018Z" fill="#231F20"/>
<path d="M25.3192 4.98949C25.444 5.0615 25.5801 5.09584 25.7145 5.09584C25.9884 5.09584 26.2547 4.95372 26.4015 4.69952L27.1542 3.39567C27.3731 3.01666 27.2432 2.53206 26.8643 2.31334C26.4851 2.09446 26.0006 2.22446 25.7819 2.60331L25.0292 3.90716C24.8103 4.28617 24.9402 4.77077 25.3192 4.98949Z" fill="#231F20"/>
<path d="M10.0668 4.69958C10.2135 4.95378 10.4798 5.09591 10.7537 5.09591C10.888 5.09591 11.0244 5.06156 11.1492 4.98956C11.5282 4.77076 11.658 4.28616 11.4391 3.90723L10.6864 2.60338C10.4675 2.22438 9.98301 2.09445 9.60408 2.3134C9.22507 2.5322 9.09522 3.01681 9.3141 3.39574L10.0668 4.69958Z" fill="#231F20"/>
</svg>
