<svg width="29" height="32" viewBox="0 0 29 32" fill="none" xmlns="http://www.w3.org/2000/svg">
<path d="M17.2514 14.8971C17.391 14.3459 17.385 13.768 17.234 13.2198C17.0831 12.6717 16.7924 12.1721 16.3904 11.7701C15.9883 11.368 15.4888 11.0773 14.9406 10.9264C14.3925 10.7754 13.8145 10.7695 13.2634 10.909C12.1175 11.1918 11.18 12.1293 10.8973 13.2751C10.7577 13.8262 10.7637 14.4042 10.9147 14.9523C11.0656 15.5005 11.3563 16 11.7584 16.4021C12.1604 16.8041 12.6599 17.0948 13.2081 17.2458C13.7562 17.3967 14.3342 17.4027 14.8854 17.2631C16.0461 16.9804 16.9836 16.0429 17.2514 14.8971Z" stroke="#5E44FF" stroke-width="2" stroke-linecap="round" stroke-linejoin="round"/>
<path d="M23.0236 23.6039C24.3309 22.3862 25.373 20.912 26.0848 19.2733C26.7966 17.6347 27.1628 15.8668 27.1605 14.0802C27.1605 12.3625 26.8221 10.6616 26.1648 9.07464C25.5074 7.48767 24.544 6.04572 23.3293 4.83111C22.1147 3.6165 20.6728 2.65302 19.0858 1.99567C17.4988 1.33833 15.7979 1 14.0802 1C12.3625 1 10.6616 1.33833 9.07464 1.99567C7.48767 2.65302 6.04572 3.6165 4.83111 4.83111C3.6165 6.04572 2.65302 7.48767 1.99567 9.07464C1.33833 10.6616 1 12.3625 1 14.0802C1 17.86 2.60713 21.2677 5.18151 23.6486" stroke="#5E44FF" stroke-width="2" stroke-linecap="round" stroke-linejoin="round"/>
<path d="M8.1274 19.6769C6.75836 18.2185 5.91016 16.2543 5.91016 14.0817C5.91016 9.57279 9.57083 5.91211 14.0797 5.91211C18.5886 5.91211 22.2493 9.57279 22.2493 14.0817C22.2493 16.2543 21.4011 18.2037 20.032 19.6769M11.55 22.8167L9.40714 25.4804C7.71073 27.6083 9.2137 30.7482 11.9369 30.7482H16.2077C18.9309 30.7482 20.4487 27.5934 18.7374 25.4804L16.5946 22.8167C15.3148 21.1947 12.8446 21.1947 11.55 22.8167V22.8167Z" stroke="#5E44FF" stroke-width="2" stroke-linecap="round" stroke-linejoin="round"/>
</svg>
