<svg width="28" height="34" viewBox="0 0 28 34" fill="none" xmlns="http://www.w3.org/2000/svg">
<path d="M13.9935 1.73412C14.0441 2.03084 15.0115 7.70014 15.0115 9.86559C15.0115 13.1674 13.2537 15.5223 10.6549 16.4693L11.4706 31.5011C11.5148 32.366 10.8256 33.0984 9.95301 33.0984H5.90618C5.03991 33.0984 4.34436 32.3723 4.38863 31.5011L5.20431 16.4693C2.59917 15.5223 0.847656 13.1611 0.847656 9.86559C0.847656 7.69383 1.8151 2.03084 1.86569 1.73412C2.06803 0.452528 4.73008 0.433588 4.89448 1.80356V10.7179C4.97668 10.9325 5.84928 10.9199 5.90618 10.7179C5.99471 9.12063 6.40571 1.92983 6.41204 1.76569C6.6207 0.452528 9.23849 0.452528 9.44083 1.76569C9.45348 1.93614 9.85816 9.12063 9.94668 10.7179C10.0036 10.9199 10.8825 10.9325 10.9584 10.7179V1.80356C11.1228 0.439902 13.7912 0.452528 13.9935 1.73412V1.73412ZM21.5307 19.7711L20.5822 31.4569C20.5064 32.3408 21.2082 33.0984 22.0935 33.0984H25.6344C26.4754 33.0984 27.152 32.4228 27.152 31.5832V2.28969C27.152 1.45634 26.4754 0.774504 25.6344 0.774504C20.4178 0.774504 11.635 12.0437 21.5307 19.7711Z" fill="black"/>
</svg>
