<svg width="28" height="36" viewBox="0 0 28 36" fill="none" xmlns="http://www.w3.org/2000/svg">
<path d="M23.143 4.76953H1.96364L0.935059 5.84486V32.4476L1.40259 34.2242H18.3741L23.143 29.0814V4.76953Z" fill="white"/>
<path d="M18.2007 35.4877H2.48906C1.11657 35.4877 0 34.3711 0 32.9986V6.18438C0 4.81188 1.11657 3.69531 2.48906 3.69531H21.8228C23.1953 3.69531 24.3118 4.81188 24.3118 6.18438V29.3765L18.2007 35.4877ZM2.48906 5.56545C2.14776 5.56545 1.87014 5.84307 1.87014 6.18438V32.9986C1.87014 33.3399 2.14776 33.6176 2.48906 33.6176H17.4261L22.4417 28.6018V6.18438C22.4417 5.84317 22.1641 5.56545 21.8228 5.56545C21.8228 5.56545 2.48906 5.56545 2.48906 5.56545Z" fill="#1F2C47"/>
<path d="M19.6955 18.2948H17.8254V14.4405H6.48684V18.2948H4.6167V14.1858C4.6167 13.2951 5.34138 12.5703 6.23222 12.5703H18.0801C18.9709 12.5703 19.6956 13.295 19.6956 14.1858L19.6955 18.2948Z" fill="#1F2C47"/>
<path d="M19.4033 20.7695H4.90967V22.6397H19.4033V20.7695Z" fill="#1F2C47"/>
<path d="M19.4033 24.7891H4.90967V26.6592H19.4033V24.7891Z" fill="#1F2C47"/>
<path d="M13.3564 28.8086H4.90967V30.6787H13.3564V28.8086Z" fill="#1F2C47"/>
<path d="M13.0867 11.248C11.3726 11.248 9.9781 9.85339 9.9781 8.13932V6.71081H11.8482V8.13932C11.8482 8.8222 12.4039 9.37782 13.0867 9.37782C13.7696 9.37782 14.3252 8.82229 14.3252 8.13932V4.03988C14.3252 2.84345 13.3519 1.87014 12.1556 1.87014C10.9592 1.87014 9.98586 2.84345 9.98586 4.03988H8.11572C8.11563 1.81226 9.92789 0 12.1555 0C14.3831 0 16.1954 1.81226 16.1954 4.03988V8.13932C16.1954 9.85339 14.8008 11.248 13.0867 11.248Z" fill="#1F2C47"/>
<path d="M25.3256 4.63281H21.788C22.6462 4.63281 23.342 5.3285 23.342 6.1868V28.9916L17.7786 34.555H21.3162L26.8796 28.9916V6.18671C26.8796 5.3285 26.1838 4.63281 25.3256 4.63281Z" fill="#FFD248"/>
<path d="M21.7035 35.4877H15.521L22.4069 28.6018V6.18438C22.4069 5.84317 22.1292 5.56545 21.7879 5.56545V3.69531H25.3256C26.6981 3.69531 27.8146 4.81188 27.8146 6.18438V29.3765L21.7035 35.4877ZM20.0359 33.6176H20.9288L25.9445 28.6018V6.18438C25.9445 5.84317 25.6669 5.56545 25.3256 5.56545H24.1991C24.25 5.76341 24.277 5.97071 24.277 6.18438V29.3765L20.0359 33.6176Z" fill="#1F2C47"/>
</svg>
