<svg width="26" height="23" viewBox="0 0 26 23" fill="none" xmlns="http://www.w3.org/2000/svg">
<path d="M7.20098 8.79714C6.31627 8.79714 5.6015 9.51191 5.6015 10.3966C5.6015 11.2813 6.31627 11.9961 7.20098 11.9961C8.08569 11.9961 8.80046 11.2813 8.80046 10.3966C8.80046 9.51191 8.08569 8.79714 7.20098 8.79714ZM12.7992 8.79714C11.9144 8.79714 11.1997 9.51191 11.1997 10.3966C11.1997 11.2813 11.9144 11.9961 12.7992 11.9961C13.6839 11.9961 14.3986 11.2813 14.3986 10.3966C14.3986 9.51191 13.6839 8.79714 12.7992 8.79714ZM18.3973 8.79714C17.5126 8.79714 16.7979 9.51191 16.7979 10.3966C16.7979 11.2813 17.5126 11.9961 18.3973 11.9961C19.2821 11.9961 19.9968 11.2813 19.9968 10.3966C19.9968 9.51191 19.2821 8.79714 18.3973 8.79714ZM12.7992 0C5.73146 0 0.00331733 4.65349 0.00331733 10.3966C0.00331733 12.7758 0.997994 14.9551 2.64746 16.7096C1.9027 18.6789 0.353204 20.3484 0.328212 20.3684C-0.00168104 20.7183 -0.0916518 21.2281 0.0982865 21.668C0.288225 22.1078 0.723083 22.3927 1.20293 22.3927C4.27693 22.3927 6.70114 21.1081 8.15567 20.0785C9.6002 20.5333 11.1597 20.7932 12.7992 20.7932C19.8669 20.7932 25.595 16.1398 25.595 10.3966C25.595 4.65349 19.8669 0 12.7992 0ZM12.7992 18.394C11.4646 18.394 10.145 18.1891 8.88043 17.7892L7.7458 17.4293L6.77112 18.1191C6.05635 18.6239 5.07667 19.1888 3.89705 19.5686C4.26193 18.9638 4.61682 18.2841 4.89173 17.5593L5.42156 16.1548L4.39189 15.0651C3.48719 14.1004 2.40254 12.5059 2.40254 10.3966C2.40254 5.98805 7.06602 2.39922 12.7992 2.39922C18.5323 2.39922 23.1958 5.98805 23.1958 10.3966C23.1958 14.8052 18.5323 18.394 12.7992 18.394Z" fill="#C5C5C5"/>
</svg>
