<svg width="32" height="32" viewBox="0 0 32 32" fill="none" xmlns="http://www.w3.org/2000/svg">
<path d="M16.0001 0.667969C24.4667 0.667969 31.3334 7.53463 31.3334 16.0013C31.3334 24.468 24.4667 31.3346 16.0001 31.3346C7.53341 31.3346 0.666748 24.468 0.666748 16.0013C0.666748 7.53463 7.53341 0.667969 16.0001 0.667969Z" fill="#F4661E"/>
<path d="M16 32C7.1776 32 0 24.8224 0 16C0 7.1776 7.1776 0 16 0C24.8224 0 32 7.1776 32 16C32 24.8224 24.8224 32 16 32ZM16 1.33333C7.91273 1.33333 1.33333 7.91273 1.33333 16C1.33333 24.0873 7.91273 30.6667 16 30.6667C24.0873 30.6667 30.6667 24.0873 30.6667 16C30.6667 7.91273 24.0873 1.33333 16 1.33333Z" fill="#231F20"/>
<path d="M28 14.3294V17.6628C28 18.0294 27.7 18.3294 27.3333 18.3294H25.0267C24.8067 19.1828 24.4733 19.9894 24.0333 20.7294L25.6667 22.3628C25.9267 22.6228 25.9267 23.0428 25.6667 23.3028L23.3067 25.6628C23.0467 25.9228 22.6267 25.9228 22.3667 25.6628L20.7333 24.0294C19.9933 24.4694 19.1867 24.8028 18.3333 25.0228V27.3294C18.3333 27.6961 18.0333 27.9961 17.6667 27.9961H14.3333C13.9667 27.9961 13.6667 27.6961 13.6667 27.3294V25.0228C12.8133 24.8028 12.0067 24.4694 11.2667 24.0294L9.63333 25.6628C9.37333 25.9228 8.95333 25.9228 8.69333 25.6628L6.33333 23.3028C6.07333 23.0428 6.07333 22.6228 6.33333 22.3628L7.96667 20.7294C7.52667 19.9894 7.19333 19.1828 6.97333 18.3294H4.66667C4.3 18.3294 4 18.0294 4 17.6628V14.3294C4 13.9628 4.3 13.6628 4.66667 13.6628H6.97333C7.19333 12.8094 7.52667 12.0028 7.96667 11.2628L6.33333 9.62943C6.07333 9.36943 6.07333 8.94943 6.33333 8.68943L8.69333 6.32943C8.95333 6.06943 9.37333 6.06943 9.63333 6.32943L11.2667 7.96276C12.0067 7.52276 12.8133 7.18943 13.6667 6.96943V4.66276C13.6667 4.29609 13.9667 3.99609 14.3333 3.99609H17.6667C18.0333 3.99609 18.3333 4.29609 18.3333 4.66276V6.96943C19.1867 7.18943 19.9933 7.52276 20.7333 7.96276L22.3667 6.32943C22.6267 6.06943 23.0467 6.06943 23.3067 6.32943L25.6667 8.68943C25.9267 8.94943 25.9267 9.36943 25.6667 9.62943L24.0333 11.2628C24.4733 12.0028 24.8067 12.8094 25.0267 13.6628H27.3333C27.7 13.6628 28 13.9628 28 14.3294Z" fill="#E7ECED"/>
<path d="M17.6666 28.6654H14.3333C13.5981 28.6654 12.9999 28.0672 12.9999 27.332V25.5282C12.4373 25.352 11.8959 25.1282 11.3819 24.8596L10.1047 26.1368C9.85299 26.3884 9.51865 26.527 9.16325 26.527C8.80779 26.527 8.47345 26.3884 8.22179 26.1368L5.86185 23.7768C5.61025 23.5252 5.47159 23.1909 5.47159 22.8354C5.47159 22.48 5.61012 22.1457 5.86185 21.894L7.13905 20.6168C6.87039 20.1028 6.64659 19.5614 6.47039 18.9988H4.66659C3.93139 18.9988 3.33325 18.4006 3.33325 17.6654V14.3321C3.33325 13.5969 3.93139 12.9988 4.66659 12.9988H6.47039C6.64665 12.4362 6.87039 11.8948 7.13905 11.3807L5.86185 10.1035C5.61019 9.85183 5.47159 9.5175 5.47159 9.1621C5.47159 8.80663 5.61019 8.4723 5.86185 8.22063L8.22179 5.8607C8.47339 5.6091 8.80772 5.47043 9.16319 5.47043C9.51859 5.47043 9.85292 5.60896 10.1046 5.8607L11.3818 7.1379C11.8959 6.86923 12.4372 6.64543 12.9999 6.46923V4.66536C12.9999 3.93016 13.598 3.33203 14.3332 3.33203H17.6665C18.4017 3.33203 18.9999 3.93016 18.9999 4.66536V6.46916C19.5625 6.64543 20.1039 6.86916 20.6179 7.13783L21.8951 5.86063C22.1468 5.60896 22.4811 5.47036 22.8365 5.47036C23.192 5.47036 23.5263 5.60896 23.778 5.86063L26.1379 8.22057C26.3895 8.47217 26.5282 8.8065 26.5282 9.16197C26.5282 9.51737 26.3897 9.8517 26.1379 10.1034L24.8607 11.3806C25.1294 11.8946 25.3532 12.436 25.5294 12.9986H27.3333C28.0685 12.9986 28.6666 13.5968 28.6666 14.332V17.6653C28.6666 18.4005 28.0685 18.9986 27.3333 18.9986H25.5295C25.3532 19.5612 25.1295 20.1026 24.8608 20.6167L26.138 21.8939C26.3897 22.1456 26.5283 22.4799 26.5283 22.8353C26.5283 23.1908 26.3897 23.5251 26.138 23.7768L23.7781 26.1367C23.5265 26.3883 23.1921 26.527 22.8367 26.527C22.4813 26.527 22.1469 26.3884 21.8953 26.1367L20.6181 24.8595C20.104 25.1282 19.5627 25.352 19 25.5282V27.332C18.9999 28.0672 18.4018 28.6654 17.6666 28.6654ZM11.2668 23.3654C11.3837 23.3654 11.5015 23.396 11.6073 23.459C12.2909 23.8654 13.0397 24.1752 13.8331 24.3798C14.1275 24.4558 14.3333 24.7213 14.3333 25.0254V27.332H17.6666V25.0254C17.6666 24.7212 17.8723 24.4558 18.1668 24.3798C18.9601 24.1752 19.709 23.8654 20.3926 23.4589C20.6545 23.3032 20.989 23.3448 21.2047 23.5605L22.8381 25.1938L25.1952 22.8338L23.5619 21.2034C23.3463 20.9878 23.3045 20.6533 23.4603 20.3912C23.8667 19.7076 24.1765 18.9588 24.3811 18.1654C24.4571 17.871 24.7226 17.6652 25.0267 17.6652H27.3333V14.3319H25.0266C24.7225 14.3319 24.457 14.1262 24.381 13.8317C24.1765 13.0384 23.8666 12.2895 23.4601 11.6059C23.3043 11.3438 23.3461 11.0094 23.5617 10.7938L25.1951 9.16043L22.8351 6.8033L21.2046 8.43663C20.9889 8.65216 20.6544 8.69403 20.3925 8.53823C19.7089 8.13176 18.9601 7.82196 18.1667 7.61736C17.8722 7.54136 17.6665 7.2759 17.6665 6.97176V4.66536H14.3331V6.97203C14.3331 7.27616 14.1274 7.54163 13.8329 7.61763C13.0396 7.82216 12.2907 8.13203 11.6071 8.5385C11.3452 8.6943 11.0107 8.65256 10.795 8.4369L9.16165 6.80356L6.80452 9.16357L8.43785 10.794C8.65345 11.0096 8.69525 11.3441 8.53945 11.6062C8.13299 12.2898 7.82319 13.0386 7.61859 13.832C7.54259 14.1264 7.27712 14.3322 6.97299 14.3322H4.66659V17.6655H6.97325C7.27739 17.6655 7.54285 17.8712 7.61885 18.1657C7.82339 18.959 8.13325 19.7079 8.53972 20.3915C8.69552 20.6536 8.65372 20.988 8.43812 21.2036L6.80479 22.837L9.16479 25.1941L10.7953 23.5608C10.9237 23.4322 11.0944 23.3654 11.2668 23.3654Z" fill="#231F20"/>
<path d="M22.1056 19.4983L19.4389 17.165L18.5609 18.1684L19.8923 19.3333H15.9999C14.1619 19.3333 12.6666 17.838 12.6666 16H11.3333C11.3333 18.5732 13.4267 20.6667 15.9999 20.6667H19.8923L18.5609 21.8317L19.4389 22.8351L22.1056 20.5017C22.2503 20.3752 22.3333 20.1923 22.3333 20.0001C22.3333 19.8079 22.2503 19.6249 22.1056 19.4983Z" fill="#231F20"/>
<path d="M16.0001 11.3325H12.1077L13.4391 10.1675L12.5611 9.16406L9.89441 11.4974C9.74975 11.6239 9.66675 11.8069 9.66675 11.9991C9.66675 12.1913 9.74975 12.3742 9.89441 12.5007L12.5611 14.8341L13.4391 13.8307L12.1077 12.6658H16.0001C17.8381 12.6658 19.3334 14.1611 19.3334 15.9991H20.6667C20.6667 13.4259 18.5733 11.3325 16.0001 11.3325Z" fill="#231F20"/>
<path d="M16 18C17.1046 18 18 17.1046 18 16C18 14.8954 17.1046 14 16 14C14.8954 14 14 14.8954 14 16C14 17.1046 14.8954 18 16 18Z" fill="#AFB6BB"/>
</svg>
