<svg width="33" height="34" viewBox="0 0 33 34" fill="none" xmlns="http://www.w3.org/2000/svg">
<path d="M8.27562 10.0234C8.35759 10.5095 8.78004 10.8756 9.28446 10.8756H10.3248C10.9427 10.8756 11.4345 10.339 11.3526 9.73926C11.113 7.95892 10.3185 6.31747 9.04486 5.02325C8.13691 4.09519 7.55683 2.92093 7.38029 1.64565C7.31093 1.1469 6.88218 0.774414 6.36515 0.774414H5.3311C4.71319 0.774414 4.23399 1.31104 4.30335 1.9108C4.54925 3.92474 5.43829 5.78084 6.86326 7.2392C7.61988 8.00942 8.10538 8.97535 8.27562 10.0234V10.0234ZM15.3374 10.0234C15.4194 10.5095 15.8419 10.8756 16.3463 10.8756H17.3866C18.0045 10.8756 18.4963 10.339 18.4144 9.73926C18.1748 7.95892 17.3803 6.31747 16.1067 5.02325C15.1987 4.09519 14.6187 2.92093 14.4421 1.64565C14.3728 1.1469 13.944 0.774414 13.427 0.774414H12.3929C11.775 0.774414 11.2895 1.31104 11.3652 1.9108C11.6111 3.92474 12.5001 5.78084 13.9251 7.2392C14.6817 8.00942 15.1672 8.97535 15.3374 10.0234V10.0234ZM25.4825 12.8959H2.27938C1.16336 12.8959 0.261719 13.7987 0.261719 14.9161V27.0376C0.261719 30.3837 2.97295 33.0984 6.31471 33.0984H18.4207C21.7624 33.0984 24.4737 30.3837 24.4737 27.0376H25.4825C29.3791 27.0376 32.5443 23.8684 32.5443 19.9668C32.5443 16.0652 29.3791 12.8959 25.4825 12.8959ZM25.4825 22.9971H24.4737V16.9364H25.4825C27.1534 16.9364 28.509 18.2937 28.509 19.9668C28.509 21.6398 27.1534 22.9971 25.4825 22.9971Z" fill="black"/>
</svg>
