<svg width="33" height="31" viewBox="0 0 33 31" fill="none" xmlns="http://www.w3.org/2000/svg">
<path d="M30.4044 5.64062H28.1865V23.0861C28.1865 23.2355 28.1272 23.3787 28.0216 23.4843C27.916 23.5899 27.7728 23.6492 27.6235 23.6492H5.10154C4.95221 23.6492 4.809 23.5899 4.70341 23.4843C4.59782 23.3787 4.53849 23.2355 4.53849 23.0861V5.64062H2.25195V24.7843H30.4044V5.64062Z" fill="#F2F2FC"/>
<path d="M19.1436 25.9102V27.5993C19.1436 27.7486 19.0843 27.8918 18.9787 27.9974C18.8731 28.103 18.7299 28.1624 18.5806 28.1624H14.0762C13.9268 28.1624 13.7836 28.103 13.678 27.9974C13.5724 27.8918 13.5131 27.7486 13.5131 27.5993V25.9102H1.16602C1.30209 26.848 1.77122 27.7055 2.4876 28.3258C3.20398 28.9461 4.11974 29.2879 5.06738 29.2884H27.5893C28.5372 29.2886 29.4533 28.9471 30.1698 28.3266C30.8864 27.7062 31.3553 26.8483 31.4907 25.9102H19.1436Z" fill="#61729B"/>
<path d="M18.0177 25.9102H14.6394V27.0363H18.0177V25.9102Z" fill="#2C3B73"/>
<path d="M27.0607 4.34375H5.66479V22.5223H27.0607V4.34375ZM10.9423 6.0785C11.0916 6.0785 11.2348 6.13782 11.3404 6.24342C11.446 6.34901 11.5053 6.49222 11.5053 6.64155V10.2749H15.1387C15.288 10.2749 15.4312 10.3342 15.5368 10.4398C15.6424 10.5454 15.7017 10.6886 15.7017 10.838C15.7017 11.7793 15.4226 12.6995 14.8996 13.4822C14.3766 14.2649 13.6333 14.8749 12.7636 15.2351C11.8939 15.5953 10.937 15.6896 10.0137 15.506C9.09049 15.3223 8.24243 14.869 7.57681 14.2034C6.91119 13.5378 6.4579 12.6897 6.27425 11.7665C6.09061 10.8432 6.18486 9.88627 6.54509 9.01659C6.90532 8.14692 7.51535 7.40359 8.29804 6.88062C9.08073 6.35764 10.0009 6.0785 10.9423 6.0785V6.0785ZM16.9601 20.8304C16.9601 20.9797 16.9008 21.1229 16.7952 21.2285C16.6896 21.3341 16.5464 21.3934 16.3971 21.3934H7.38829C7.23896 21.3934 7.09574 21.3341 6.99015 21.2285C6.88456 21.1229 6.82524 20.9797 6.82524 20.8304V17.4521C6.82524 17.3028 6.88456 17.1595 6.99015 17.054C7.09574 16.9484 7.23896 16.889 7.38829 16.889H16.3971C16.5464 16.889 16.6896 16.9484 16.7952 17.054C16.9008 17.1595 16.9601 17.3028 16.9601 17.4521V20.8304ZM16.3976 10.1398H12.2012C12.0519 10.1398 11.9087 10.0805 11.8031 9.97486C11.6975 9.86927 11.6382 9.72606 11.6382 9.57673V5.38257C11.6382 5.23324 11.6975 5.09003 11.8031 4.98444C11.9087 4.87885 12.0519 4.81953 12.2012 4.81953C13.4629 4.82012 14.6728 5.32145 15.5652 6.2134C16.4576 7.10535 16.9595 8.31501 16.9607 9.57673C16.9607 9.72606 16.9014 9.86927 16.7958 9.97486C16.6902 10.0805 16.547 10.1398 16.3976 10.1398ZM19.223 20.8304C19.223 20.9797 19.1637 21.1229 19.0581 21.2285C18.9525 21.3341 18.8093 21.3934 18.66 21.3934C18.5106 21.3934 18.3674 21.3341 18.2618 21.2285C18.1562 21.1229 18.0969 20.9797 18.0969 20.8304V17.4521C18.0969 17.3028 18.1562 17.1595 18.2618 17.054C18.3674 16.9484 18.5106 16.889 18.66 16.889C18.8093 16.889 18.9525 16.9484 19.0581 17.054C19.1637 17.1595 19.223 17.3028 19.223 17.4521V20.8304ZM21.4752 20.8304C21.4752 20.9797 21.4159 21.1229 21.3103 21.2285C21.2047 21.3341 21.0615 21.3934 20.9122 21.3934C20.7628 21.3934 20.6196 21.3341 20.514 21.2285C20.4084 21.1229 20.3491 20.9797 20.3491 20.8304V16.326C20.3491 16.1767 20.4084 16.0334 20.514 15.9279C20.6196 15.8223 20.7628 15.7629 20.9122 15.7629C21.0615 15.7629 21.2047 15.8223 21.3103 15.9279C21.4159 16.0334 21.4752 16.1767 21.4752 16.326V20.8304ZM23.7274 20.8304C23.7274 20.9797 23.6681 21.1229 23.5625 21.2285C23.4569 21.3341 23.3137 21.3934 23.1644 21.3934C23.015 21.3934 22.8718 21.3341 22.7662 21.2285C22.6606 21.1229 22.6013 20.9797 22.6013 20.8304V15.4814C22.6013 15.3321 22.6606 15.1889 22.7662 15.0833C22.8718 14.9777 23.015 14.9184 23.1644 14.9184C23.3137 14.9184 23.4569 14.9777 23.5625 15.0833C23.6681 15.1889 23.7274 15.3321 23.7274 15.4814V20.8304ZM25.9689 20.8304C25.9689 20.9797 25.9096 21.1229 25.804 21.2285C25.6984 21.3341 25.5552 21.3934 25.4059 21.3934C25.2565 21.3934 25.1133 21.3341 25.0077 21.2285C24.9021 21.1229 24.8428 20.9797 24.8428 20.8304V14.0738C24.8428 13.9245 24.9021 13.7813 25.0077 13.6757C25.1133 13.5701 25.2565 13.5107 25.4059 13.5107C25.5552 13.5107 25.6984 13.5701 25.804 13.6757C25.9096 13.7813 25.9689 13.9245 25.9689 14.0738V20.8304ZM26.0393 12.3847H17.9714C17.822 12.3847 17.6788 12.3253 17.5732 12.2197C17.4676 12.1141 17.4083 11.9709 17.4083 11.8216C17.4083 11.6723 17.4676 11.5291 17.5732 11.4235C17.6788 11.3179 17.822 11.2586 17.9714 11.2586H26.0393C26.1886 11.2586 26.3318 11.3179 26.4374 11.4235C26.543 11.5291 26.6023 11.6723 26.6023 11.8216C26.6023 11.9709 26.543 12.1141 26.4374 12.2197C26.3318 12.3253 26.1886 12.3847 26.0393 12.3847ZM26.0393 10.776H17.9714C17.822 10.776 17.6788 10.7167 17.5732 10.6111C17.4676 10.5055 17.4083 10.3623 17.4083 10.213C17.4083 10.0636 17.4676 9.92043 17.5732 9.81484C17.6788 9.70924 17.822 9.64992 17.9714 9.64992H26.0393C26.1886 9.64992 26.3318 9.70924 26.4374 9.81484C26.543 9.92043 26.6023 10.0636 26.6023 10.213C26.6023 10.3623 26.543 10.5055 26.4374 10.6111C26.3318 10.7167 26.1886 10.776 26.0393 10.776ZM26.0393 9.16739H17.9714C17.822 9.16739 17.6788 9.10807 17.5732 9.00248C17.4676 8.89688 17.4083 8.75367 17.4083 8.60434C17.4083 8.45501 17.4676 8.3118 17.5732 8.2062C17.6788 8.10061 17.822 8.04129 17.9714 8.04129H26.0393C26.1886 8.04129 26.3318 8.10061 26.4374 8.2062C26.543 8.3118 26.6023 8.45501 26.6023 8.60434C26.6023 8.75367 26.543 8.89688 26.4374 9.00248C26.3318 9.10807 26.1886 9.16739 26.0393 9.16739ZM26.0393 7.55876H17.9714C17.822 7.55876 17.6788 7.49944 17.5732 7.39385C17.4676 7.28825 17.4083 7.14504 17.4083 6.99571C17.4083 6.84638 17.4676 6.70317 17.5732 6.59757C17.6788 6.49198 17.822 6.43266 17.9714 6.43266H26.0393C26.1886 6.43266 26.3318 6.49198 26.4374 6.59757C26.543 6.70317 26.6023 6.84638 26.6023 6.99571C26.6023 7.14504 26.543 7.28825 26.4374 7.39385C26.3318 7.49944 26.1886 7.55876 26.0393 7.55876Z" fill="#D8D8FC"/>
<path d="M27.0607 1.125H5.66479V3.21616H27.0607V1.125ZM8.31901 2.73363H6.71038C6.56105 2.73363 6.41783 2.67431 6.31224 2.56872C6.20665 2.46312 6.14733 2.31991 6.14733 2.17058C6.14733 2.02125 6.20665 1.87804 6.31224 1.77245C6.41783 1.66685 6.56105 1.60753 6.71038 1.60753H8.31901C8.46834 1.60753 8.61155 1.66685 8.71714 1.77245C8.82274 1.87804 8.88206 2.02125 8.88206 2.17058C8.88206 2.31991 8.82274 2.46312 8.71714 2.56872C8.61155 2.67431 8.46834 2.73363 8.31901 2.73363ZM11.5368 2.73363H9.92764C9.77831 2.73363 9.63509 2.67431 9.5295 2.56872C9.42391 2.46312 9.36459 2.31991 9.36459 2.17058C9.36459 2.02125 9.42391 1.87804 9.5295 1.77245C9.63509 1.66685 9.77831 1.60753 9.92764 1.60753H11.5368C11.6862 1.60753 11.8294 1.66685 11.935 1.77245C12.0406 1.87804 12.0999 2.02125 12.0999 2.17058C12.0999 2.31991 12.0406 2.46312 11.935 2.56872C11.8294 2.67431 11.6862 2.73363 11.5368 2.73363ZM14.7541 2.73363H13.1455C12.9961 2.73363 12.8529 2.67431 12.7473 2.56872C12.6417 2.46312 12.5824 2.31991 12.5824 2.17058C12.5824 2.02125 12.6417 1.87804 12.7473 1.77245C12.8529 1.66685 12.9961 1.60753 13.1455 1.60753H14.7518C14.9012 1.60753 15.0444 1.66685 15.15 1.77245C15.2556 1.87804 15.3149 2.02125 15.3149 2.17058C15.3149 2.31991 15.2556 2.46312 15.15 2.56872C15.0444 2.67431 14.9012 2.73363 14.7518 2.73363H14.7541Z" fill="#2C3B73"/>
<path d="M32.0938 24.7832H31.5307V5.07645C31.5307 4.92712 31.4714 4.7839 31.3658 4.67831C31.2602 4.57272 31.117 4.5134 30.9677 4.5134H28.1868V0.563049C28.1868 0.413719 28.1275 0.270505 28.0219 0.164913C27.9163 0.0593209 27.7731 0 27.6237 0H5.10179C4.95246 0 4.80924 0.0593209 4.70365 0.164913C4.59806 0.270505 4.53874 0.413719 4.53874 0.563049V4.5134H1.68915C1.53982 4.5134 1.3966 4.57272 1.29101 4.67831C1.18542 4.7839 1.1261 4.92712 1.1261 5.07645V24.7832H0.563049C0.413719 24.7832 0.270505 24.8425 0.164913 24.9481C0.059321 25.0537 0 25.1969 0 25.3462C0 26.6902 0.533889 27.9791 1.48422 28.9294C2.43455 29.8798 3.72347 30.4136 5.06744 30.4136H27.5894C28.9334 30.4136 30.2223 29.8798 31.1726 28.9294C32.1229 27.9791 32.6568 26.6902 32.6568 25.3462C32.6568 25.1969 32.5975 25.0537 32.4919 24.9481C32.3863 24.8425 32.2431 24.7832 32.0938 24.7832V24.7832ZM27.5894 29.2875H5.06744C4.1198 29.287 3.20404 28.9452 2.48766 28.3249C1.77128 27.7046 1.30215 26.8471 1.16607 25.9093H13.5132V27.5984C13.5132 27.7477 13.5725 27.8909 13.6781 27.9965C13.7837 28.1021 13.9269 28.1615 14.0762 28.1615H18.5806C18.7299 28.1615 18.8732 28.1021 18.9787 27.9965C19.0843 27.8909 19.1437 27.7477 19.1437 27.5984V25.9093H31.4908C31.3554 26.8474 30.8864 27.7053 30.1699 28.3257C29.4534 28.9462 28.5372 29.2877 27.5894 29.2875V29.2875ZM5.66483 4.34448H27.0607V22.522H5.66483V4.34448ZM5.66483 1.12722H27.0607V3.21839H5.66483V1.12722ZM2.2522 5.6395H4.53874V23.085C4.53874 23.2343 4.59806 23.3775 4.70365 23.4831C4.80924 23.5887 4.95246 23.6481 5.10179 23.6481H27.6237C27.7731 23.6481 27.9163 23.5887 28.0219 23.4831C28.1275 23.3775 28.1868 23.2343 28.1868 23.085V5.6395H30.4046V24.7832H2.2522V5.6395ZM14.6393 25.9093H18.0176V27.0354H14.6393V25.9093Z" fill="black"/>
<path d="M8.3189 1.60547H6.71027C6.56094 1.60547 6.41772 1.66479 6.31213 1.77038C6.20654 1.87597 6.14722 2.01919 6.14722 2.16852C6.14722 2.31785 6.20654 2.46106 6.31213 2.56665C6.41772 2.67225 6.56094 2.73157 6.71027 2.73157H8.3189C8.46823 2.73157 8.61144 2.67225 8.71703 2.56665C8.82262 2.46106 8.88194 2.31785 8.88194 2.16852C8.88194 2.01919 8.82262 1.87597 8.71703 1.77038C8.61144 1.66479 8.46823 1.60547 8.3189 1.60547Z" fill="#D8D8FC"/>
<path d="M11.5367 1.60547H9.92755C9.77822 1.60547 9.63501 1.66479 9.52941 1.77038C9.42382 1.87597 9.3645 2.01919 9.3645 2.16852C9.3645 2.31785 9.42382 2.46106 9.52941 2.56665C9.63501 2.67225 9.77822 2.73157 9.92755 2.73157H11.5367C11.6861 2.73157 11.8293 2.67225 11.9349 2.56665C12.0405 2.46106 12.0998 2.31785 12.0998 2.16852C12.0998 2.01919 12.0405 1.87597 11.9349 1.77038C11.8293 1.66479 11.6861 1.60547 11.5367 1.60547Z" fill="#D8D8FC"/>
<path d="M14.7519 1.60547H13.1456C12.9962 1.60547 12.853 1.66479 12.7474 1.77038C12.6418 1.87597 12.5825 2.01919 12.5825 2.16852C12.5825 2.31785 12.6418 2.46106 12.7474 2.56665C12.853 2.67225 12.9962 2.73157 13.1456 2.73157H14.7519C14.9013 2.73157 15.0445 2.67225 15.1501 2.56665C15.2557 2.46106 15.315 2.31785 15.315 2.16852C15.315 2.01919 15.2557 1.87597 15.1501 1.77038C15.0445 1.66479 14.9013 1.60547 14.7519 1.60547Z" fill="#D8D8FC"/>
<path d="M10.9423 14.47C11.8083 14.4694 12.6457 14.1598 13.3038 13.5969C13.9619 13.0339 14.3976 12.2546 14.5323 11.3991H10.9423C10.793 11.3991 10.6498 11.3398 10.5442 11.2342C10.4386 11.1286 10.3793 10.9854 10.3793 10.8361V7.24609C9.47546 7.3879 8.6584 7.86538 8.09123 8.58321C7.52405 9.30104 7.2485 10.2064 7.31959 11.1185C7.39068 12.0306 7.80318 12.8823 8.47473 13.5036C9.14628 14.1248 10.0275 14.47 10.9423 14.47V14.47Z" fill="#FDBF00"/>
<path d="M10.9421 15.6015C12.2042 15.6009 13.4144 15.0993 14.3069 14.2068C15.1993 13.3144 15.701 12.1041 15.7016 10.842C15.7016 10.6927 15.6422 10.5495 15.5366 10.4439C15.4311 10.3383 15.2878 10.279 15.1385 10.279H11.5052V6.64508C11.5052 6.49575 11.4458 6.35254 11.3402 6.24694C11.2347 6.14135 11.0914 6.08203 10.9421 6.08203C9.67975 6.08203 8.46909 6.5835 7.57647 7.47612C6.68384 8.36875 6.18237 9.57941 6.18237 10.8418C6.18237 12.1041 6.68384 13.3148 7.57647 14.2074C8.46909 15.1 9.67975 15.6015 10.9421 15.6015V15.6015ZM10.3791 7.25148V10.8415C10.3791 10.9908 10.4384 11.134 10.544 11.2396C10.6496 11.3452 10.7928 11.4045 10.9421 11.4045H14.5321C14.4282 12.0671 14.143 12.688 13.708 13.1984C13.273 13.7089 12.7053 14.089 12.0676 14.2967C11.43 14.5045 10.7473 14.5317 10.0951 14.3754C9.44292 14.219 8.84672 13.8853 8.3725 13.4111C7.89828 12.9369 7.56454 12.3407 7.40823 11.6885C7.25192 11.0363 7.27914 10.3536 7.48686 9.71595C7.69459 9.07829 8.07472 8.51055 8.58518 8.07558C9.09564 7.64061 9.71651 7.35539 10.3791 7.25148V7.25148Z" fill="black"/>
<path d="M12.7639 5.99219V9.01689H15.7909C15.6704 8.25765 15.3126 7.55606 14.7689 7.01269C14.2251 6.46932 13.5232 6.11208 12.7639 5.99219V5.99219Z" fill="#4BB9EC"/>
<path d="M12.2007 4.82422C12.0514 4.82422 11.9082 4.88354 11.8026 4.98913C11.697 5.09472 11.6377 5.23794 11.6377 5.38727V9.58142C11.6377 9.73075 11.697 9.87396 11.8026 9.97956C11.9082 10.0851 12.0514 10.1445 12.2007 10.1445H16.3971C16.5465 10.1445 16.6897 10.0851 16.7953 9.97956C16.9009 9.87396 16.9602 9.73075 16.9602 9.58142C16.959 8.31971 16.4571 7.11005 15.5647 6.21809C14.6724 5.32614 13.4625 4.82481 12.2007 4.82422V4.82422ZM12.7638 9.02062V5.99367C13.5231 6.11356 14.225 6.47081 14.7687 7.01418C15.3125 7.55755 15.6703 8.25914 15.7907 9.01837L12.7638 9.02062Z" fill="black"/>
<path d="M18.6602 16.8945C18.5109 16.8945 18.3677 16.9539 18.2621 17.0594C18.1565 17.165 18.0972 17.3083 18.0972 17.4576V20.8359C18.0972 20.9852 18.1565 21.1284 18.2621 21.234C18.3677 21.3396 18.5109 21.3989 18.6602 21.3989C18.8095 21.3989 18.9528 21.3396 19.0584 21.234C19.1639 21.1284 19.2233 20.9852 19.2233 20.8359V17.4576C19.2233 17.3083 19.1639 17.165 19.0584 17.0594C18.9528 16.9539 18.8095 16.8945 18.6602 16.8945Z" fill="black"/>
<path d="M20.9122 15.7656C20.7628 15.7656 20.6196 15.8249 20.514 15.9305C20.4084 16.0361 20.3491 16.1793 20.3491 16.3287V20.8331C20.3491 20.9824 20.4084 21.1256 20.514 21.2312C20.6196 21.3368 20.7628 21.3961 20.9122 21.3961C21.0615 21.3961 21.2047 21.3368 21.3103 21.2312C21.4159 21.1256 21.4752 20.9824 21.4752 20.8331V16.3287C21.4752 16.1793 21.4159 16.0361 21.3103 15.9305C21.2047 15.8249 21.0615 15.7656 20.9122 15.7656Z" fill="black"/>
<path d="M23.1644 14.918C23.015 14.918 22.8718 14.9773 22.7662 15.0829C22.6606 15.1885 22.6013 15.3317 22.6013 15.481V20.83C22.6013 20.9793 22.6606 21.1225 22.7662 21.2281C22.8718 21.3337 23.015 21.393 23.1644 21.393C23.3137 21.393 23.4569 21.3337 23.5625 21.2281C23.6681 21.1225 23.7274 20.9793 23.7274 20.83V15.481C23.7274 15.3317 23.6681 15.1885 23.5625 15.0829C23.4569 14.9773 23.3137 14.918 23.1644 14.918V14.918Z" fill="black"/>
<path d="M25.4058 13.5117C25.2565 13.5117 25.1133 13.571 25.0077 13.6766C24.9021 13.7822 24.8428 13.9254 24.8428 14.0748V20.8314C24.8428 20.9807 24.9021 21.1239 25.0077 21.2295C25.1133 21.3351 25.2565 21.3944 25.4058 21.3944C25.5552 21.3944 25.6984 21.3351 25.804 21.2295C25.9095 21.1239 25.9689 20.9807 25.9689 20.8314V14.0748C25.9689 13.9254 25.9095 13.7822 25.804 13.6766C25.6984 13.571 25.5552 13.5117 25.4058 13.5117V13.5117Z" fill="black"/>
<path d="M26.0394 6.43359H17.9715C17.8222 6.43359 17.679 6.49292 17.5734 6.59851C17.4678 6.7041 17.4084 6.84731 17.4084 6.99664C17.4084 7.14597 17.4678 7.28919 17.5734 7.39478C17.679 7.50037 17.8222 7.55969 17.9715 7.55969H26.0394C26.1888 7.55969 26.332 7.50037 26.4376 7.39478C26.5431 7.28919 26.6025 7.14597 26.6025 6.99664C26.6025 6.84731 26.5431 6.7041 26.4376 6.59851C26.332 6.49292 26.1888 6.43359 26.0394 6.43359Z" fill="black"/>
<path d="M26.0394 8.04297H17.9715C17.8222 8.04297 17.679 8.10229 17.5734 8.20788C17.4678 8.31347 17.4084 8.45669 17.4084 8.60602C17.4084 8.75535 17.4678 8.89856 17.5734 9.00415C17.679 9.10975 17.8222 9.16907 17.9715 9.16907H26.0394C26.1888 9.16907 26.332 9.10975 26.4376 9.00415C26.5431 8.89856 26.6025 8.75535 26.6025 8.60602C26.6025 8.45669 26.5431 8.31347 26.4376 8.20788C26.332 8.10229 26.1888 8.04297 26.0394 8.04297Z" fill="black"/>
<path d="M26.0394 9.65234H17.9715C17.8222 9.65234 17.679 9.71166 17.5734 9.81726C17.4678 9.92285 17.4084 10.0661 17.4084 10.2154C17.4084 10.3647 17.4678 10.5079 17.5734 10.6135C17.679 10.7191 17.8222 10.7784 17.9715 10.7784H26.0394C26.1888 10.7784 26.332 10.7191 26.4376 10.6135C26.5431 10.5079 26.6025 10.3647 26.6025 10.2154C26.6025 10.0661 26.5431 9.92285 26.4376 9.81726C26.332 9.71166 26.1888 9.65234 26.0394 9.65234Z" fill="black"/>
<path d="M26.0394 11.2617H17.9715C17.8222 11.2617 17.679 11.321 17.5734 11.4266C17.4678 11.5322 17.4084 11.6754 17.4084 11.8248C17.4084 11.9741 17.4678 12.1173 17.5734 12.2229C17.679 12.3285 17.8222 12.3878 17.9715 12.3878H26.0394C26.1888 12.3878 26.332 12.3285 26.4376 12.2229C26.5431 12.1173 26.6025 11.9741 26.6025 11.8248C26.6025 11.6754 26.5431 11.5322 26.4376 11.4266C26.332 11.321 26.1888 11.2617 26.0394 11.2617Z" fill="black"/>
<path d="M15.8339 18.0195H7.95117V20.2717H15.8339V18.0195Z" fill="#F03800"/>
<path d="M16.397 16.8945H7.38824C7.23891 16.8945 7.0957 16.9539 6.99011 17.0594C6.88452 17.165 6.8252 17.3083 6.8252 17.4576V20.8359C6.8252 20.9852 6.88452 21.1284 6.99011 21.234C7.0957 21.3396 7.23891 21.3989 7.38824 21.3989H16.397C16.5464 21.3989 16.6896 21.3396 16.7952 21.234C16.9008 21.1284 16.9601 20.9852 16.9601 20.8359V17.4576C16.9601 17.3083 16.9008 17.165 16.7952 17.0594C16.6896 16.9539 16.5464 16.8945 16.397 16.8945ZM15.834 20.2728H7.95129V18.0206H15.834V20.2728Z" fill="black"/>
</svg>
