<svg width="29" height="32" viewBox="0 0 29 32" fill="none" xmlns="http://www.w3.org/2000/svg">
<path d="M1 30.7616H27.7854M4.86901 10.494H2.48808C1.66964 10.494 1 11.1636 1 11.982V24.8093C1 25.6277 1.66964 26.2974 2.48808 26.2974H4.86901C5.68745 26.2974 6.35709 25.6277 6.35709 24.8093V11.982C6.35709 11.1636 5.68745 10.494 4.86901 10.494ZM15.5832 5.74698H13.2023C12.3838 5.74698 11.7142 6.41661 11.7142 7.23506V24.8093C11.7142 25.6277 12.3838 26.2974 13.2023 26.2974H15.5832C16.4016 26.2974 17.0713 25.6277 17.0713 24.8093V7.23506C17.0713 6.41661 16.4016 5.74698 15.5832 5.74698ZM26.2974 1H23.9164C23.098 1 22.4284 1.66964 22.4284 2.48808V24.8093C22.4284 25.6277 23.098 26.2974 23.9164 26.2974H26.2974C27.1158 26.2974 27.7854 25.6277 27.7854 24.8093V2.48808C27.7854 1.66964 27.1158 1 26.2974 1Z" stroke="#5E44FF" stroke-width="2" stroke-linecap="round" stroke-linejoin="round"/>
</svg>
