<svg width="17" height="17" viewBox="0 0 17 17" fill="none" xmlns="http://www.w3.org/2000/svg">
<path d="M16.075 14.7921L12.9014 11.6184C12.7581 11.4752 12.5639 11.3956 12.3602 11.3956H11.8414C12.7199 10.272 13.242 8.85864 13.242 7.32118C13.242 3.66372 10.2784 0.700195 6.62098 0.700195C2.96353 0.700195 0 3.66372 0 7.32118C0 10.9786 2.96353 13.9422 6.62098 13.9422C8.15845 13.9422 9.57177 13.4201 10.6954 12.5416V13.0604C10.6954 13.2641 10.775 13.4583 10.9183 13.6016L14.0919 16.7752C14.3911 17.0744 14.8749 17.0744 15.171 16.7752L16.0718 15.8743C16.371 15.5751 16.371 15.0913 16.075 14.7921ZM6.62098 11.3956C4.37048 11.3956 2.54653 9.57486 2.54653 7.32118C2.54653 5.07068 4.3673 3.24673 6.62098 3.24673C8.87148 3.24673 10.6954 5.0675 10.6954 7.32118C10.6954 9.57167 8.87466 11.3956 6.62098 11.3956Z" fill="black"/>
</svg>
