<svg width="23" height="16" viewBox="0 0 27 21" fill="none" xmlns="http://www.w3.org/2000/svg">
<path d="M13.5 0C6.04406 0 0 6.04406 0 13.5C0 15.975 0.667969 18.2934 1.83094 20.2875C2.09391 20.7384 2.595 21 3.11719 21H23.8828C24.405 21 24.9061 20.7384 25.1691 20.2875C26.332 18.2934 27 15.975 27 13.5C27 6.04406 20.9559 0 13.5 0ZM13.5 3C14.1895 3 14.7459 3.47484 14.9213 4.10859C14.8692 4.21453 14.7975 4.30687 14.7595 4.42125L14.3273 5.71828C14.0869 5.88188 13.8131 6 13.5005 6C12.6722 6 12.0005 5.32828 12.0005 4.5C12.0005 3.67172 12.6717 3 13.5 3ZM4.5 16.5C3.67172 16.5 3 15.8283 3 15C3 14.1717 3.67172 13.5 4.5 13.5C5.32828 13.5 6 14.1717 6 15C6 15.8283 5.32828 16.5 4.5 16.5ZM6.75 9C5.92172 9 5.25 8.32828 5.25 7.5C5.25 6.67172 5.92172 6 6.75 6C7.57828 6 8.25 6.67172 8.25 7.5C8.25 8.32828 7.57828 9 6.75 9ZM18.3173 5.60578L15.4425 14.2308C16.0842 14.7811 16.5 15.5878 16.5 16.5C16.5 17.0494 16.3416 17.557 16.0837 18H10.9163C10.6584 17.557 10.5 17.0494 10.5 16.5C10.5 14.9091 11.7422 13.6205 13.3078 13.5192L16.1831 4.89375C16.3786 4.305 17.0142 3.98203 17.6063 4.18266C18.1955 4.37906 18.5133 5.01656 18.3173 5.60578ZM19.0045 8.28703L19.732 6.105C19.8947 6.04453 20.0662 6.00047 20.25 6.00047C21.0783 6.00047 21.75 6.67219 21.75 7.50047C21.75 8.32875 21.0783 9.00047 20.25 9.00047C19.7166 9 19.2708 8.70609 19.0045 8.28703ZM22.5 16.5C21.6717 16.5 21 15.8283 21 15C21 14.1717 21.6717 13.5 22.5 13.5C23.3283 13.5 24 14.1717 24 15C24 15.8283 23.3283 16.5 22.5 16.5Z" fill="black"/>
</svg>
