<svg width="17" height="21" viewBox="0 0 17 21" fill="none" xmlns="http://www.w3.org/2000/svg">
<path d="M16.999 12.4688C16.999 17.1814 13.1946 21 8.49949 21C3.80434 21 0 17.1814 0 12.4688C0 8.20312 3.11784 4.66758 7.19188 4.04004V2.625H6.04771C5.77802 2.625 5.55736 2.40352 5.55736 2.13281V0.492188C5.55736 0.221484 5.77802 0 6.04771 0H10.9513C11.221 0 11.4416 0.221484 11.4416 0.492188V2.13281C11.4416 2.40352 11.221 2.625 10.9513 2.625H9.8071V4.04004C11.3395 4.27793 12.737 4.92598 13.8811 5.86934L15.0049 4.74141C15.1969 4.54863 15.5075 4.54863 15.6995 4.74141L16.856 5.90215C17.048 6.09492 17.048 6.40664 16.856 6.59941L15.6546 7.80527L15.6301 7.82988C16.4964 9.15879 16.999 10.7543 16.999 12.4688ZM9.8071 13.9453V7.73145C9.8071 7.46074 9.58644 7.23926 9.31675 7.23926H7.68223C7.41254 7.23926 7.19188 7.46074 7.19188 7.73145V13.9453C7.19188 14.216 7.41254 14.4375 7.68223 14.4375H9.31675C9.58644 14.4375 9.8071 14.216 9.8071 13.9453Z" fill="black"/>
</svg>
