<?xml version="1.0" encoding="utf-8"?>
<!-- Generator: Adobe Illustrator 16.0.0, SVG Export Plug-In . SVG Version: 6.00 Build 0)  -->
<!DOCTYPE svg PUBLIC "-//W3C//DTD SVG 1.1//EN" "http://www.w3.org/Graphics/SVG/1.1/DTD/svg11.dtd">
<svg version="1.1" id="Layer_1" xmlns="http://www.w3.org/2000/svg" xmlns:xlink="http://www.w3.org/1999/xlink" x="0px" y="0px"
	 width="17px" height="21px" viewBox="0 0 17 21" enable-background="new 0 0 17 21" xml:space="preserve">
<path fill="#FFFFFF" d="M16.999,12.469c0,4.713-3.804,8.531-8.5,8.531C3.804,21,0,17.182,0,12.469C0,8.203,3.118,4.667,7.192,4.04
	V2.625H6.048c-0.27,0-0.491-0.222-0.491-0.492V0.492C5.557,0.222,5.778,0,6.048,0h4.903c0.27,0,0.49,0.222,0.49,0.492v1.641
	c0,0.271-0.221,0.492-0.49,0.492H9.807V4.04c1.533,0.238,2.93,0.886,4.074,1.829l1.124-1.128c0.192-0.192,0.503-0.192,0.694,0
	l1.156,1.161c0.192,0.192,0.192,0.504,0,0.697l-1.201,1.206L15.63,7.83C16.496,9.159,16.999,10.754,16.999,12.469z M9.807,13.945
	V7.731c0-0.271-0.221-0.492-0.49-0.492H7.682c-0.27,0-0.49,0.222-0.49,0.492v6.214c0,0.271,0.221,0.492,0.49,0.492h1.634
	C9.586,14.438,9.807,14.216,9.807,13.945z"/>
</svg>
