<svg width="31" height="34" viewBox="0 0 31 34" fill="none" xmlns="http://www.w3.org/2000/svg">
<path d="M8.4405 1V5.46424M20.3451 1V5.46424M1.74414 11.5505H27.0415M29.2736 26.2974C29.2736 27.4134 28.9611 28.47 28.4105 29.3628C27.8859 30.2445 27.1408 30.9743 26.2484 31.4805C25.3561 31.9867 24.3472 32.2518 23.3213 32.2497C21.8183 32.2497 20.4493 31.6991 19.4077 30.7616C18.9464 30.3747 18.5446 29.8985 18.2321 29.3628C17.6656 28.4408 17.3668 27.3795 17.369 26.2974C17.369 23.0087 20.0326 20.345 23.3213 20.345C25.107 20.345 26.6993 21.1337 27.7855 22.3688C28.7426 23.454 29.2715 24.8505 29.2736 26.2974Z" stroke="#5E44FF" stroke-width="2" stroke-miterlimit="10" stroke-linecap="round" stroke-linejoin="round"/>
<path d="M21 26.2982L22.4732 27.7714L25.6428 24.8398" stroke="#5E44FF" stroke-width="2" stroke-linecap="round" stroke-linejoin="round"/>
<path d="M27.7854 10.6728V22.3691C26.6992 21.134 25.1069 20.3453 23.3212 20.3453C20.0325 20.3453 17.3689 23.009 17.3689 26.2977C17.3689 27.4137 17.6814 28.4703 18.232 29.3631C18.5445 29.8988 18.9463 30.375 19.4076 30.7619H8.4404C3.23212 30.7619 1 27.7858 1 23.3215V10.6728C1 6.20858 3.23212 3.23242 8.4404 3.23242H20.345C25.5533 3.23242 27.7854 6.20858 27.7854 10.6728Z" stroke="#5E44FF" stroke-width="2" stroke-miterlimit="10" stroke-linecap="round" stroke-linejoin="round"/>
<path d="M14.3843 18.4082H14.3992M8.87695 18.4082H8.89183M8.87695 22.8724H8.89183" stroke="#5E44FF" stroke-width="2" stroke-linecap="round" stroke-linejoin="round"/>
</svg>
