<svg width="33" height="33" viewBox="0 0 33 33" fill="none" xmlns="http://www.w3.org/2000/svg">
<path d="M0.655473 11.1445V31.4706H31.4724V11.1445H0.655473ZM4.58955 28.8479V25.5695H7.86795V28.8479H4.58955ZM4.58955 22.9468V19.6684H7.86795V22.9468H4.58955ZM4.58955 17.0456V13.7672H7.86795V17.0456H4.58955ZM11.1463 28.8479V25.5695H14.4247V28.8479H11.1463ZM11.1463 22.9468V19.6684H14.4247V22.9468H11.1463ZM11.1463 17.0456V13.7672H14.4247V17.0456H11.1463ZM17.7031 28.8479V25.5695H20.9815V28.8479H17.7031ZM17.7031 22.9468V19.6684H20.9815V22.9468H17.7031ZM17.7031 17.0456V13.7672H20.9815V17.0456H17.7031ZM24.2599 28.8479V25.5695H27.5383V28.8479H24.2599ZM24.2599 22.9468V19.6684H27.5383V22.9468H24.2599ZM24.2599 17.0456V13.7672H27.5383V17.0456H24.2599Z" fill="white"/>
<path d="M0.655473 3.93359V11.1461H31.4724V3.93359H27.2105V5.90063H23.2764V3.93359H18.031V5.90063H14.0969V3.93359H8.85147V5.90063H4.91739V3.93359H0.655473Z" fill="#F4661E"/>
<path d="M4.58952 19.668H7.86792V22.9464H4.58952V19.668Z" fill="#FFD248"/>
<path d="M4.58952 13.7656H7.86792V17.044H4.58952V13.7656Z" fill="#FFD248"/>
<path d="M4.91749 3.93074V5.89778H8.85156V3.93074V0.652344H4.91749V3.93074Z" fill="#CCCCCC"/>
<path d="M11.1467 25.5703H14.425V28.8487H11.1467V25.5703Z" fill="#B3B3B3"/>
<path d="M11.1467 13.7656H14.425V17.044H11.1467V13.7656Z" fill="#B3B3B3"/>
<path d="M14.0969 3.93074V5.89778H18.031V3.93074V0.652344H14.0969V3.93074Z" fill="#CCCCCC"/>
<path d="M17.7033 25.5703H20.9817V28.8487H17.7033V25.5703Z" fill="#B3B3B3"/>
<path d="M17.7033 19.668H20.9817V22.9464H17.7033V19.668Z" fill="#FFD248"/>
<path d="M17.7033 13.7656H20.9817V17.044H17.7033V13.7656Z" fill="#B3B3B3"/>
<path d="M23.2766 3.93074V5.89778H27.2107V3.93074V0.652344H23.2766V3.93074Z" fill="#CCCCCC"/>
<path d="M24.2602 25.5703H27.5386V28.8487H24.2602V25.5703Z" fill="#FFD248"/>
<path d="M24.2602 19.668H27.5386V22.9464H24.2602V19.668Z" fill="#FFD248"/>
<path d="M24.2602 13.7656H27.5386V17.044H24.2602V13.7656Z" fill="#B3B3B3"/>
<path d="M0.655799 3.2784H4.26204V0.65568C4.26204 0.293548 4.55558 0 4.91772 0H8.85179C9.21393 0 9.50747 0.293548 9.50747 0.65568V3.2784H13.4416V0.65568C13.4416 0.293548 13.7351 0 14.0972 0H18.0313C18.3934 0 18.687 0.293548 18.687 0.65568V3.2784H22.6211V0.65568C22.6211 0.293548 22.9146 0 23.2767 0H27.2108C27.573 0 27.8665 0.293548 27.8665 0.65568V3.2784H31.4727C31.8349 3.2784 32.1284 3.57195 32.1284 3.93408V31.4726C32.1284 31.8348 31.8349 32.1283 31.4727 32.1283H0.655799C0.293668 32.1283 0.000119835 31.8348 0.000119835 31.4726V3.93408C0.000119835 3.57195 0.293668 3.2784 0.655799 3.2784ZM8.19611 1.31136H5.5734V5.24544H8.19611V1.31136ZM17.3756 1.31136H14.7529V5.24544H17.3756V1.31136ZM26.5551 1.31136H23.9324V5.24544H26.5551V1.31136ZM27.8665 4.58976V5.90112C27.8665 6.26325 27.573 6.5568 27.2108 6.5568H23.2767C22.9146 6.5568 22.6211 6.26325 22.6211 5.90112V4.58976H18.687V5.90112C18.687 6.26325 18.3934 6.5568 18.0313 6.5568H14.0972C13.7351 6.5568 13.4416 6.26325 13.4416 5.90112V4.58976H9.50747V5.90112C9.50747 6.26325 9.21393 6.5568 8.85179 6.5568H4.91772C4.55558 6.5568 4.26204 6.26325 4.26204 5.90112V4.58976H1.31148V10.4909H30.8171V4.58976H27.8665ZM30.8171 30.8169V11.8022H1.31148V30.8169H30.8171Z" fill="black"/>
<path d="M17.7039 17.7069H20.9823C21.3444 17.7069 21.6379 17.4134 21.6379 17.0513V13.7729C21.6379 13.4107 21.3444 13.1172 20.9823 13.1172H17.7039C17.3417 13.1172 17.0482 13.4107 17.0482 13.7729V17.0513C17.0482 17.4134 17.3417 17.7069 17.7039 17.7069ZM20.3266 16.3956H18.3595V14.4285H20.3266V16.3956Z" fill="black"/>
<path d="M24.2603 17.7069H27.5387C27.9008 17.7069 28.1943 17.4134 28.1943 17.0513V13.7729C28.1943 13.4107 27.9008 13.1172 27.5387 13.1172H24.2603C23.8981 13.1172 23.6046 13.4107 23.6046 13.7729V17.0513C23.6046 17.4134 23.8981 17.7069 24.2603 17.7069ZM26.883 16.3956H24.9159V14.4285H26.883V16.3956Z" fill="black"/>
<path d="M11.1467 17.7069H14.4251C14.7873 17.7069 15.0808 17.4134 15.0808 17.0513V13.7729C15.0808 13.4107 14.7873 13.1172 14.4251 13.1172H11.1467C10.7846 13.1172 10.4911 13.4107 10.4911 13.7729V17.0513C10.4911 17.4134 10.7846 17.7069 11.1467 17.7069ZM13.7695 16.3956H11.8024V14.4285H13.7695V16.3956Z" fill="black"/>
<path d="M17.7039 23.6054H20.9823C21.3444 23.6054 21.6379 23.3118 21.6379 22.9497V19.6713C21.6379 19.3092 21.3444 19.0156 20.9823 19.0156H17.7039C17.3417 19.0156 17.0482 19.3092 17.0482 19.6713V22.9497C17.0482 23.3118 17.3417 23.6054 17.7039 23.6054ZM20.3266 22.294H18.3595V20.327H20.3266V22.294Z" fill="black"/>
<path d="M24.2603 23.6054H27.5387C27.9008 23.6054 28.1943 23.3118 28.1943 22.9497V19.6713C28.1943 19.3092 27.9008 19.0156 27.5387 19.0156H24.2603C23.8981 19.0156 23.6046 19.3092 23.6046 19.6713V22.9497C23.6046 23.3118 23.8981 23.6054 24.2603 23.6054ZM26.883 22.294H24.9159V20.327H26.883V22.294Z" fill="black"/>
<path d="M11.1467 23.6054H14.4251C14.7873 23.6054 15.0808 23.3118 15.0808 22.9497V19.6713C15.0808 19.3092 14.7873 19.0156 14.4251 19.0156H11.1467C10.7846 19.0156 10.4911 19.3092 10.4911 19.6713V22.9497C10.4911 23.3118 10.7846 23.6054 11.1467 23.6054ZM13.7695 22.294H11.8024V20.327H13.7695V22.294Z" fill="black"/>
<path d="M17.7039 29.5116H20.9823C21.3444 29.5116 21.6379 29.2181 21.6379 28.856V25.5776C21.6379 25.2154 21.3444 24.9219 20.9823 24.9219H17.7039C17.3417 24.9219 17.0482 25.2154 17.0482 25.5776V28.856C17.0482 29.2181 17.3417 29.5116 17.7039 29.5116ZM20.3266 28.2003H18.3595V26.2332H20.3266V28.2003Z" fill="black"/>
<path d="M24.2603 29.5116H27.5387C27.9008 29.5116 28.1943 29.2181 28.1943 28.856V25.5776C28.1943 25.2154 27.9008 24.9219 27.5387 24.9219H24.2603C23.8981 24.9219 23.6046 25.2154 23.6046 25.5776V28.856C23.6046 29.2181 23.8981 29.5116 24.2603 29.5116ZM26.883 28.2003H24.9159V26.2332H26.883V28.2003Z" fill="black"/>
<path d="M11.1467 29.5116H14.4251C14.7873 29.5116 15.0808 29.2181 15.0808 28.856V25.5776C15.0808 25.2154 14.7873 24.9219 14.4251 24.9219H11.1467C10.7846 24.9219 10.4911 25.2154 10.4911 25.5776V28.856C10.4911 29.2181 10.7846 29.5116 11.1467 29.5116ZM13.7695 28.2003H11.8024V26.2332H13.7695V28.2003Z" fill="black"/>
<path d="M4.58985 17.7069H7.86825C8.23038 17.7069 8.52393 17.4134 8.52393 17.0513V13.7729C8.52393 13.4107 8.23038 13.1172 7.86825 13.1172H4.58985C4.22772 13.1172 3.93417 13.4107 3.93417 13.7729V17.0513C3.93417 17.4134 4.22772 17.7069 4.58985 17.7069ZM7.21257 16.3956H5.24553V14.4285H7.21257V16.3956Z" fill="black"/>
<path d="M4.59009 23.6054H7.86849C8.23062 23.6054 8.52417 23.3118 8.52417 22.9497V19.6713C8.52417 19.3092 8.23062 19.0156 7.86849 19.0156H4.59009C4.22796 19.0156 3.93441 19.3092 3.93441 19.6713V22.9497C3.93441 23.3118 4.22796 23.6054 4.59009 23.6054ZM7.21281 22.294H5.24577V20.327H7.21281V22.294Z" fill="black"/>
<path d="M4.58985 29.5116H7.86825C8.23038 29.5116 8.52393 29.2181 8.52393 28.856V25.5776C8.52393 25.2154 8.23038 24.9219 7.86825 24.9219H4.58985C4.22772 24.9219 3.93417 25.2154 3.93417 25.5776V28.856C3.93417 29.2181 4.22772 29.5116 4.58985 29.5116ZM7.21257 28.2003H5.24553V26.2332H7.21257V28.2003Z" fill="black"/>
</svg>
