<svg width="18" height="18" viewBox="0 0 22 22" fill="none" xmlns="http://www.w3.org/2000/svg">
<path d="M12.7188 16.4968H9.28125C8.70977 16.4968 8.25 16.037 8.25 15.4655V8.24678H4.48164C3.7168 8.24678 3.33437 7.32295 3.87578 6.78154L10.4113 0.241699C10.7336 -0.0805664 11.2621 -0.0805664 11.5844 0.241699L18.1242 6.78154C18.6656 7.32295 18.2832 8.24678 17.5184 8.24678H13.75V15.4655C13.75 16.037 13.2902 16.4968 12.7188 16.4968ZM22 16.153V20.9655C22 21.537 21.5402 21.9968 20.9688 21.9968H1.03125C0.459766 21.9968 0 21.537 0 20.9655V16.153C0 15.5815 0.459766 15.1218 1.03125 15.1218H6.875V15.4655C6.875 16.7933 7.95352 17.8718 9.28125 17.8718H12.7188C14.0465 17.8718 15.125 16.7933 15.125 15.4655V15.1218H20.9688C21.5402 15.1218 22 15.5815 22 16.153ZM16.6719 19.9343C16.6719 19.4616 16.2852 19.0749 15.8125 19.0749C15.3398 19.0749 14.9531 19.4616 14.9531 19.9343C14.9531 20.4069 15.3398 20.7936 15.8125 20.7936C16.2852 20.7936 16.6719 20.4069 16.6719 19.9343ZM19.4219 19.9343C19.4219 19.4616 19.0352 19.0749 18.5625 19.0749C18.0898 19.0749 17.7031 19.4616 17.7031 19.9343C17.7031 20.4069 18.0898 20.7936 18.5625 20.7936C19.0352 20.7936 19.4219 20.4069 19.4219 19.9343Z" fill="black"/>
</svg>
