<svg width="30" height="23" viewBox="0 0 30 23" fill="none" xmlns="http://www.w3.org/2000/svg">
<path d="M27.5 0H2.5C1.125 0 0 1.125 0 2.5V20C0 21.375 1.125 22.5 2.5 22.5H27.5C28.875 22.5 29.9875 21.375 29.9875 20L30 2.5C30 1.125 28.875 0 27.5 0ZM27.5 20H2.5V2.5H27.5V20ZM26.25 3.75H17.5V10H26.25V3.75ZM25 6.25L21.875 8.4375L18.75 6.25V5L21.875 7.1875L25 5V6.25ZM11.25 11.25C13.3125 11.25 15 9.5625 15 7.5C15 5.4375 13.3125 3.75 11.25 3.75C9.1875 3.75 7.5 5.4375 7.5 7.5C7.5 9.5625 9.1875 11.25 11.25 11.25ZM11.25 6.25C11.9375 6.25 12.5 6.8125 12.5 7.5C12.5 8.1875 11.9375 8.75 11.25 8.75C10.5625 8.75 10 8.1875 10 7.5C10 6.8125 10.5625 6.25 11.25 6.25ZM18.75 16.9875C18.75 13.8625 13.7875 12.5125 11.25 12.5125C8.7125 12.5125 3.75 13.8625 3.75 16.9875V18.75H18.75V16.9875ZM6.85 16.25C7.775 15.625 9.625 15 11.25 15C12.875 15 14.7125 15.6125 15.65 16.25H6.85Z" fill="#D3E8E0"/>
</svg>
