<svg width="25" height="30" viewBox="0 0 25 30" fill="none" xmlns="http://www.w3.org/2000/svg">
<path d="M22.5 5H2.5C1.125 5 0 6.125 0 7.5V22.5C0 23.875 1.125 25 2.5 25H22.5C23.875 25 25 23.875 25 22.5V7.5C25 6.125 23.875 5 22.5 5ZM22.5 22.5H2.5V7.5H22.5V22.5ZM2.5 0H22.5V2.5H2.5V0ZM2.5 27.5H22.5V30H2.5V27.5ZM12.5 15C14.225 15 15.625 13.6 15.625 11.875C15.625 10.15 14.225 8.75 12.5 8.75C10.775 8.75 9.375 10.15 9.375 11.875C9.375 13.6 10.775 15 12.5 15ZM12.5 10.625C13.1875 10.625 13.75 11.1875 13.75 11.875C13.75 12.5625 13.1875 13.125 12.5 13.125C11.8125 13.125 11.25 12.5625 11.25 11.875C11.25 11.1875 11.8125 10.625 12.5 10.625ZM18.75 19.9875C18.75 17.375 14.6125 16.25 12.5 16.25C10.3875 16.25 6.25 17.375 6.25 19.9875V21.25H18.75V19.9875ZM8.5125 19.375C9.275 18.725 11.05 18.125 12.5 18.125C13.9625 18.125 15.7375 18.725 16.5 19.375H8.5125Z" fill="#D3E8E0"/>
</svg>
