<svg width="20" height="25" viewBox="0 0 20 25" fill="none" xmlns="http://www.w3.org/2000/svg">
<path d="M20 21.9875V7.5L12.5 0H2.5C1.125 0 0.0125003 1.125 0.0125003 2.5L0 22.5C0 23.875 1.1125 25 2.4875 25H17.5C18.0625 25 18.5625 24.8125 18.9875 24.5L13.45 18.9625C12.45 19.6125 11.275 20 10 20C6.55 20 3.75 17.2 3.75 13.75C3.75 10.3 6.55 7.5 10 7.5C13.45 7.5 16.25 10.3 16.25 13.75C16.25 15.025 15.8625 16.2 15.2125 17.1875L20 21.9875ZM6.25 13.75C6.25 15.825 7.925 17.5 10 17.5C12.075 17.5 13.75 15.825 13.75 13.75C13.75 11.675 12.075 10 10 10C7.925 10 6.25 11.675 6.25 13.75Z" fill="#D3E8E0"/>
</svg>
