<svg width="25" height="18" viewBox="0 0 25 18" fill="none" xmlns="http://www.w3.org/2000/svg">
<path d="M8.75 10.9375C5.825 10.9375 0 12.4 0 15.3125V17.5H17.5V15.3125C17.5 12.4 11.675 10.9375 8.75 10.9375ZM2.925 15C3.975 14.275 6.5125 13.4375 8.75 13.4375C10.9875 13.4375 13.525 14.275 14.575 15H2.925ZM8.75 8.75C11.1625 8.75 13.125 6.7875 13.125 4.375C13.125 1.9625 11.1625 0 8.75 0C6.3375 0 4.375 1.9625 4.375 4.375C4.375 6.7875 6.3375 8.75 8.75 8.75ZM8.75 2.5C9.7875 2.5 10.625 3.3375 10.625 4.375C10.625 5.4125 9.7875 6.25 8.75 6.25C7.7125 6.25 6.875 5.4125 6.875 4.375C6.875 3.3375 7.7125 2.5 8.75 2.5ZM17.55 11.0125C19 12.0625 20 13.4625 20 15.3125V17.5H25V15.3125C25 12.7875 20.625 11.35 17.55 11.0125V11.0125ZM16.25 8.75C18.6625 8.75 20.625 6.7875 20.625 4.375C20.625 1.9625 18.6625 0 16.25 0C15.575 0 14.95 0.1625 14.375 0.4375C15.1625 1.55 15.625 2.9125 15.625 4.375C15.625 5.8375 15.1625 7.2 14.375 8.3125C14.95 8.5875 15.575 8.75 16.25 8.75Z" fill="#D3E8E0"/>
</svg>
