<svg width="78" height="79" viewBox="0 0 78 79" fill="none" xmlns="http://www.w3.org/2000/svg">
<path d="M39 0.487305C17.6208 0.487305 0.23999 17.8681 0.23999 39.2473C0.23999 60.6265 17.6208 78.0073 39 78.0073C60.3792 78.0073 77.76 60.6265 77.76 39.2473C77.76 17.8681 60.3792 0.487305 39 0.487305ZM39 73.2747C20.232 73.2747 4.97279 58.0153 4.97279 39.2475C4.97279 20.4795 20.232 5.22029 39 5.22029C57.768 5.22029 73.0272 20.4795 73.0272 39.2475C73.0272 58.0151 57.768 73.2747 39 73.2747Z" fill="#63FF44"/>
<path d="M56.9522 27.0073L34.0224 49.9369L22.3538 38.2683C21.2114 37.1259 19.3346 37.1259 18.1922 38.2683C17.0498 39.4107 17.0498 41.2875 18.1922 42.4299L31.901 56.1389C32.4722 56.7101 33.2066 57.0365 34.0224 57.0365C34.8384 57.0365 35.573 56.7099 36.144 56.1389L61.1136 31.1693C62.2558 30.0269 62.2558 28.1501 61.1136 27.0075C59.9712 25.8649 58.176 25.8649 56.9522 27.0073Z" fill="#63FF44"/>
</svg>
