<svg width="23" height="25" viewBox="0 0 23 25" fill="none" xmlns="http://www.w3.org/2000/svg">
<path d="M5 17.5H13.75V20H5V17.5ZM5 12.5H17.5V15H5V12.5ZM5 7.5H17.5V10H5V7.5ZM20 2.5H14.775C14.25 1.05 12.875 0 11.25 0C9.625 0 8.25 1.05 7.725 2.5H2.5C2.325 2.5 2.1625 2.5125 2 2.55C1.5125 2.65 1.075 2.9 0.7375 3.2375C0.5125 3.4625 0.325 3.7375 0.2 4.0375C0.0750001 4.325 0 4.65 0 5V22.5C0 22.8375 0.0750001 23.175 0.2 23.475C0.325 23.775 0.5125 24.0375 0.7375 24.275C1.075 24.6125 1.5125 24.8625 2 24.9625C2.1625 24.9875 2.325 25 2.5 25H20C21.375 25 22.5 23.875 22.5 22.5V5C22.5 3.625 21.375 2.5 20 2.5ZM11.25 2.1875C11.7625 2.1875 12.1875 2.6125 12.1875 3.125C12.1875 3.6375 11.7625 4.0625 11.25 4.0625C10.7375 4.0625 10.3125 3.6375 10.3125 3.125C10.3125 2.6125 10.7375 2.1875 11.25 2.1875ZM20 22.5H2.5V5H20V22.5Z" fill="#D3E8E0"/>
</svg>
