<svg width="19" height="16" viewBox="0 0 19 16" fill="none" xmlns="http://www.w3.org/2000/svg">
<path d="M6.82894 1.74843L4.00343 4.57331H0.762194C0.341082 4.57331 0 4.91439 0 5.33551V9.90867C0 10.3295 0.341082 10.6709 0.762194 10.6709H4.00343L6.82894 13.4958C7.30627 13.9731 8.13007 13.6377 8.13007 12.9568V2.28736C8.13007 1.60584 7.30563 1.27174 6.82894 1.74843ZM14.2387 0.126227C13.884 -0.10656 13.4073 -0.00842748 13.1745 0.346946C12.9414 0.701684 13.0405 1.17837 13.3952 1.41116C15.4999 2.79232 16.7559 5.11415 16.7559 7.62241C16.7559 10.1307 15.4999 12.4525 13.3952 13.8337C13.0405 14.0661 12.9414 14.5431 13.1745 14.8976C13.3981 15.2377 13.871 15.36 14.2387 15.1183C16.7768 13.4522 18.2927 10.6496 18.2927 7.62209C18.2927 4.59459 16.7768 1.79226 14.2387 0.126227ZM15.2439 7.62209C15.2439 5.6045 14.2257 3.74951 12.52 2.66021C12.1646 2.43345 11.6933 2.53889 11.4682 2.89712C11.243 3.25535 11.3481 3.7295 11.7035 3.95657C12.9659 4.76291 13.7195 6.13295 13.7195 7.62209C13.7195 9.11123 12.9659 10.4813 11.7035 11.2876C11.3481 11.5144 11.243 11.9885 11.4682 12.3471C11.6749 12.6761 12.1389 12.8279 12.52 12.584C14.2257 11.4947 15.2439 9.64 15.2439 7.62209ZM10.7415 5.18085C10.3738 4.97982 9.9098 5.11225 9.70591 5.48096C9.50297 5.84967 9.63731 6.31302 10.006 6.51659C10.416 6.74176 10.6707 7.16573 10.6707 7.62209C10.6707 8.07877 10.416 8.50242 10.0063 8.72759C9.63763 8.93116 9.50329 9.39451 9.70623 9.76322C9.91043 10.1335 10.3747 10.265 10.7419 10.0633C11.6384 9.5695 12.1954 8.63422 12.1954 7.62177C12.1954 6.60932 11.6384 5.67437 10.7415 5.18085Z" fill="#9B9B9B"/>
</svg>
